<?xml version="1.0" standalone="no"?>
<!DOCTYPE svg PUBLIC "-//W3C//DTD SVG 1.1//EN" "http://www.w3.org/Graphics/SVG/1.1/DTD/svg11.dtd" >
<!--
2013-9-30: Created.
-->
<svg>
<metadata>
Created by iconfont
</metadata>
<defs>

<font id="ct-icon" horiz-adv-x="1024" >
  <font-face
    font-family="ct-icon"
    font-weight="500"
    font-stretch="normal"
    units-per-em="1024"
    ascent="896"
    descent="-128"
  />
    <missing-glyph />
    
    <glyph glyph-name="x" unicode="x" horiz-adv-x="1001"
d="M281 543q-27 -1 -53 -1h-83q-18 0 -36.5 -6t-32.5 -18.5t-23 -32t-9 -45.5v-76h912v41q0 16 -0.5 30t-0.5 18q0 13 -5 29t-17 29.5t-31.5 22.5t-49.5 9h-133v-97h-438v97zM955 310v-52q0 -23 0.5 -52t0.5 -58t-10.5 -47.5t-26 -30t-33 -16t-31.5 -4.5q-14 -1 -29.5 -0.5
t-29.5 0.5h-32l-45 128h-439l-44 -128h-29h-34q-20 0 -45 1q-25 0 -41 9.5t-25.5 23t-13.5 29.5t-4 30v167h911zM163 247q-12 0 -21 -8.5t-9 -21.5t9 -21.5t21 -8.5q13 0 22 8.5t9 21.5t-9 21.5t-22 8.5zM316 123q-8 -26 -14 -48q-5 -19 -10.5 -37t-7.5 -25t-3 -15t1 -14.5
t9.5 -10.5t21.5 -4h37h67h81h80h64h36q23 0 34 12t2 38q-5 13 -9.5 30.5t-9.5 34.5q-5 19 -11 39h-368zM336 498v228q0 11 2.5 23t10 21.5t20.5 15.5t34 6h188q31 0 51.5 -14.5t20.5 -52.5v-227h-327z" />
    

    
    <glyph glyph-name="arrow-drop-up" unicode="&#59045;" d="M512 596.5l340-425H172z"  horiz-adv-x="1024" />

    
    <glyph glyph-name="arrow-drop-down" unicode="&#59046;" d="M172 596.5h680l-340-425z"  horiz-adv-x="1024" />

    
    <glyph glyph-name="course" unicode="&#59047;" d="M248.32812526 331.26562475000003v131.83593775h65.91796849a92.2851565 92.2851565 0 0 1 0 184.57031226H248.32812526V726.77343725a52.73437525 52.73437525 0 0 0 52.73437451 52.73437525h527.34375021a52.73437525 52.73437525 0 0 0 52.73437527-52.73437525v-685.5468745a52.73437525 52.73437525 0 0 0-52.73437524-52.73437525H301.06249974a52.73437525 52.73437525 0 0 0-52.7343745 52.73437525v105.46874975h65.91796851a92.2851565 92.2851565 0 0 1 0 184.57031225H248.32812526zM696.57031225 594.93750026a26.36718725 26.36718725 0 0 1-26.36718725-26.36718801v-369.1406245a26.36718725 26.36718725 0 0 1 52.73437526 0V568.5703122499999a26.36718725 26.36718725 0 0 1-26.36718801 26.36718801zM182.410156 594.93750026h131.83593775a39.55078125 39.55078125 0 0 0 0-79.10156251h-131.83593775a39.55078125 39.55078125 0 0 0 0 79.10156251z m0-316.40625001h131.83593775a39.55078125 39.55078125 0 0 0 0-79.1015625h-131.83593775a39.55078125 39.55078125 0 0 0 0 79.1015625z"  horiz-adv-x="1024" />

    
    <glyph glyph-name="teaching_project" unicode="&#59049;" d="M775.67187475 730.06933594h52.73437524a52.73437525 52.73437525 0 0 0 52.73437526-52.73437526V41.22656274999997a52.73437525 52.73437525 0 0 0-52.73437526-52.73437525H248.32812525a52.73437525 52.73437525 0 0 0-52.73437524 52.73437525v46.14257787h527.34375025a52.73437525 52.73437525 0 0 1 52.73437449 52.73437526V730.06933594zM195.59374999 779.5078125h474.60937501a52.73437525 52.73437525 0 0 0 52.73437526-52.73437525v-537.23144481a52.73437525 52.73437525 0 0 0-52.73437526-52.73437525H195.59374999a52.73437525 52.73437525 0 0 0-52.73437524 52.73437525V726.77343725a52.73437525 52.73437525 0 0 0 52.73437526 52.73437525z m369.14062526-142.83105494a26.36718725 26.36718725 0 0 1-26.367188-26.36718725v-280.52050756a26.36718725 26.36718725 0 0 1 52.73437525 0V610.3359372499999a26.36718725 26.36718725 0 0 1-26.36718725 26.36718799z"  horiz-adv-x="1024" />

    
    <glyph glyph-name="teacher" unicode="&#59050;" d="M684.49414088 259.15136743999994l156.35742137 270.84375 67.84277369-39.15527344-155.56640651-269.4726565c25.3125-19.74902369 42.16113281-43.79589869 42.16113282-72.61523437 0-73.08984375-60.06445287-160.25976563-346.33300756-160.25976563C225.25683594-11.5078125 116.4921875 40.91015649999997 116.4921875 148.75195312000005c0 77.51953125 113.82714844 126.29882838 235.14257838 143.06835963v5.29980469C247.00976562 369.81445338000003 247.00976562 506.08007787 247.00976562 573.18457057 247.00976562 706.207031 317.41015625 779.5078125 445.26464818 779.5078125h6.69726588c133.31249975 0 212.86230469-77.15039037 212.86230469-206.32324193l0.02636693-13.44726563c0.23730469-89.20019557 0.527344-199.07226588-90.12304662-262.59082057v-6.53906275c31.42968725-5.90625025 71.98242188-16.16308568 109.76660182-31.45605418z"  horiz-adv-x="1025" />

    
    <glyph glyph-name="questionnaire" unicode="&#59051;" d="M562.13579932 35.0550882H215.94616722A98.84729081 98.84729081 0 0 0 116.49245092 134.11330982000004V610.6316055899999a98.84729081 98.84729081 0 0 0 99.42735013 99.08458778h40.15588812C256.07568917 747.78914347 281.99377034 779.5078125 313.07964852 779.5078125h234.95017618c31.11224433 0 57.00395933-31.71866903 57.00395857-69.79161914h40.15588812a98.84729081 98.84729081 0 0 0 99.4537163-99.08458777v-248.10696373a224.93097917 224.93097917 0 0 1-8.54268371 0.15819772c-118.46382479 0-213.25070417-93.15216834-213.25070417-207.4501163a203.02057634 203.02057634 0 0 1 39.28579951-120.17763508z m59.13963047 442.00479782H263.1154934c-16.0307157 0-30.32125497-10.17739474-30.32125497-23.25508382s12.49763051-23.25508459 30.32125497-23.25508457h358.15993638c16.05708187 0 30.32125497 10.17739474 30.32125497 23.25508457s-14.26417311 23.25508459-30.32125497 23.25508382z m-172.69932138-162.83832207H249.69504197c-8.96454532 0-16.90080353-10.17739474-16.90080354-23.2550838 0-13.10405522 6.96070576-23.28145074 16.87443739-23.28145075h198.8546995c8.96454532 0 16.90080353 10.17739474 16.90080432 23.28145075-0.97555324 11.60117575-7.93625899 23.25508459-16.87443739 23.2550838z m448.5172758-279.77290046a25.97081425 25.97081425 0 0 0-1.74017644-35.72634816 25.41712186 25.41712186 0 0 0-36.33277287 0l-22.51682754 22.12133285C808.81898282 2.123568969999951 774.20001945-11.481446340000048 736.10070399-11.481446340000048c-95.18237405 0-171.38100578 74.85394996-171.38100655 166.71416962 0 91.86021891 76.19863172 166.68780348 171.38100654 166.6878027 95.20874021 0 171.38100578-74.82758379 171.38100577-166.6878027 0-37.44015844-12.12850199-71.45269631-32.87878692-98.66272693l22.49046138-22.12133286zM628.78982794 156.92016664000005c-0.02636616-57.29398862 47.98668171-103.77779085 107.28450989-103.80415702 59.27146202 0 107.3372422 46.40470298 107.36360836 103.72505854v0.07909848c0 57.32035477-48.01304787 103.77779085-107.31087605 103.80415777-59.24509508 0-107.31087605-46.40470298-107.3372422-103.72505853v-0.07909924z m167.90065289-35.72634817h-3.45398595a15.66158718 15.66158718 0 0 0-12.12850198 18.72007922c1.74017644 6.80250727 3.45398673 11.91757118 3.45398595 18.72007924 0 11.89120503-3.42761979 22.0949667-10.3619594 32.29872837a15.95161646 15.95161646 0 0 0 3.42762057 22.147699 16.61077426 16.61077426 0 0 0 22.51682753-3.42761979c10.38832555-15.29245866 17.32266515-32.32509453 17.32266438-49.30499732 0-10.23012783-1.74017644-18.72007922-3.45398595-25.54895341-3.48035288-8.48995138-10.38832555-13.60501531-17.32266515-13.60501531z m-50.2014513 83.37026828a15.3715579 15.3715579 0 0 0-15.55612255 15.29245866c0 8.51631755 6.90797267 15.31882558 15.55612255 15.31882559 8.64814911 0 15.58248871-6.80250727 15.58248794-15.29245865 0-8.51631755-6.93433883-15.31882558-15.55612178-15.3188256z"  horiz-adv-x="1024" />

    
    <glyph glyph-name="project_teach" unicode="&#59052;" d="M894.80043884 337.76961322c-321.87536293 57.43133333-201.87127777-178.62189946-201.87127777-178.62189946-33.61696362-16.55423596-58.87206016-57.91157561-75.70879143-124.10026921H173.3352041A35.19893849 35.19893849 0 0 0 137.82552083 69.96388695999997V651.5373549c0 19.26619285 15.87624672 34.88819295 35.48143381 34.88819295h70.96286762V651.5373549c0-44.97328219 37.06340868-81.44345001 82.79942846-81.44345s82.77117899 36.44191835 82.771179 81.44345V686.45379729h212.91685154V651.5373549c0-44.97328219 37.06340868-81.44345001 82.79942846-81.44345s82.77117899 36.44191835 82.77117899 81.44345V686.45379729h70.99111709c19.60518708 0 35.48143381-15.62200087 35.48143303-34.88819294v-313.79599113z m-439.05449185-141.24774602c6.41264781-6.32789867 15.28300586-10.25458597 25.08559902-10.25458597s18.64470254 3.92668731 25.0855998 10.22633651l165.57060746 162.85865055A34.4644496 34.4644496 0 0 1 681.91183674 384.01412472c0 19.29444232-15.90449618 34.9164424-35.48143381 34.91644241-9.80259393 0-18.67295199-3.92668731-25.11384847-10.22633652l-140.48500845-138.16854467-57.71382866 56.75334412a35.70743021 35.70743021 0 0 1-25.08559979 10.19808707c-19.60518708 0-35.48143381-15.62200087-35.48143381-34.88819295 0-9.60484698 3.95493676-18.36220722 10.39583479-24.66185644l82.77117823-81.44345zM327.06925072 616.6209125c19.60518708 0 35.48143381 15.62200087 35.48143303 34.9164424V744.61961955C362.55068375 763.88581163 346.6744378 779.5078125 327.09750017 779.5078125S291.58781691 763.88581163 291.58781691 744.61961955V651.5373549c0-19.29444232 15.87624672-34.9164424 35.48143381-34.9164424z m612.36547609-540.41387524l75.90653837 131.4451521 25.67883989-14.83101307-94.9184846-164.41237594-2.99445223 1.75147234c-12.96654287-22.17589595-49.43671069-41.66808519-137.57530458-41.66808519-92.82801878 0-137.9707977 21.30015976-137.9707977 65.08696101 0 31.4982476 47.23324628 51.30118087 97.60219206 58.10932256v2.14696626c-43.44780624 29.52077884-43.44780624 84.86164558-43.44780626 112.12246034 0 54.01313776 29.23828351 83.78816245 82.29093674 83.78816245h2.79670526c55.3126173 0 88.33634008-31.32875009 88.33634008-83.78816245v-5.48041271c0.08474837-36.21592194 0.2259964-80.82195968-37.4024029-106.61379817v-2.68370745c24.91610229-4.57642708 63.67448364-15.59375141 81.69769587-34.97294209z m-233.87801709 540.41387524a35.19893849 35.19893849 0 0 0-35.48143382 34.9164424V744.61961955C670.04702645 763.88581163 685.95152264 779.5078125 705.55670972 779.5078125s35.48143381-15.62200087 35.4814338-34.88819295V651.5373549c0-19.29444232-15.87624672-34.9164424-35.4814338-34.9164424z"  horiz-adv-x="1170" />

    
    <glyph glyph-name="project" unicode="&#59053;" d="M314.24609375 606.45996068c-20.48730469 0-37.07226588 16.61132813-37.07226588 37.09863282v98.87695312a37.07226588 37.07226588 0 1 0 74.14453176 0v-98.87695312c0-20.48730469-16.61132813-37.09863281-37.07226588-37.09863282zM870.43554662 680.63085938c20.46093775 0 37.07226588-16.61132813 37.07226588-37.07226588v-617.99414012C907.5078125 5.103515620000053 890.89648438-11.5078125 870.43554662-11.5078125H153.56445338C133.10351562-11.5078125 116.4921875 5.103515620000053 116.4921875 25.56445338000003V643.5585935C116.4921875 664.01953125 133.10351562 680.63085938 153.56445338 680.63085938H227.761719v-37.07226588a86.51074244 86.51074244 0 1 1 173.02148412 0V680.63085938h222.48632838v-37.07226588a86.51074244 86.51074244 0 0 1 173.02148412 0V680.63085938h74.1708987zM709.75390625 606.45996068c-20.48730469 0-37.07226588 16.61132813-37.07226588 37.09863282v98.87695312a37.07226588 37.07226588 0 1 0 74.14453176 0v-98.87695312c0-20.48730469-16.61132813-37.09863281-37.07226588-37.09863282z m-261.03515625-446.42285105a36.96679662 36.96679662 0 0 1 52.417969 0l173.02148413 173.02148412a37.07226588 37.07226588 0 1 1-52.41796901 52.417969l-146.8125-146.78613306-60.30175756 60.30175756a37.07226588 37.07226588 0 1 1-52.417969-52.44433594l86.48437551-86.51074168z"  horiz-adv-x="1024" />

    
    <glyph glyph-name="exam" unicode="&#59054;" d="M764.28124975 779.5078125C829.19726563 779.5078125 881.14062525 727.88085912 881.14062525 663.33398412v-558.66796824C881.14062525 40.11914088000003 829.19726563-11.5078125 764.28124975-11.5078125H259.71875025C194.80273437-11.5078125 142.85937475 40.11914088000003 142.85937475 104.66601588000003V663.33398412C142.85937475 727.88085912 194.80273437 779.5078125 259.71875025 779.5078125h504.5624995zM446.13476537 129.609375c6.35449193-5.74804713 15.13476537-9.28124975 24.83789063-9.28124975s18.50976563 3.53320338 24.86425832 9.28124975l164.05664062 147.65625025c6.38085963 5.6953125 10.30957006 13.63183568 10.30957006 22.3593745 0 17.48144531-15.74121094 31.640625-35.14746068 31.640625-9.70312525 0-18.50976563-3.53320338-24.86425832-9.28124975l-139.21875-125.24414037-57.164062 51.41601562a37.12499975 37.12499975 0 0 1-24.86425832 9.28124975C369.53808594 257.4375 353.796875 243.27832031000003 353.796875 225.796875c0-8.72753881 3.95507813-16.63769506 10.28320313-22.35937525l82.05468724-73.82812475zM337.18554687 410.36718725V621.3046875H274.6953125v-210.93750025h62.49023438z m206.05957032 0V620.5664065000001H361.97070287V410.36718725h181.30078125zM749.3046875 410.36718725V620.5664065000001h-181.30078125V410.36718725H749.3046875z m-326.10937525 28.23925781V593.09179662h58.16601613v-154.45898387h-58.16601613z m206.05957031 0V593.09179662h58.16601613v-154.45898387h-58.16601613z"  horiz-adv-x="1024" />

    
    <glyph glyph-name="activity" unicode="&#59055;" d="M900.096 632.832h-212.992v97.28l-470.528-6.144v8.704c0 25.6-20.992 46.592-46.592 46.592s-46.592-20.992-46.592-46.592v-697.344c0-25.6 20.992-46.592 46.592-46.592s46.592 20.992 46.592 48.64v212.992l358.4-0.512v-77.824h325.12l-92.672 267.776 92.672 193.024zM508.928 531.456h82.432v-9.728H508.928v9.728z m-213.504 14.336h26.112l15.36-31.232H322.56l14.336-30.208h-25.6l-15.36 31.232h14.336l-14.848 30.208z m26.112-137.216h-26.112l17.408 66.56h26.112l-17.408-66.56z m145.408 80.896h-49.152v-22.528h46.592v-57.856H346.112V466.432h46.592v22.528H339.456v10.752h53.248v28.16l-48.64-2.048v10.752l95.232 4.608v4.608h25.6v-13.824l-46.592-2.048v-29.184h54.272l-5.632-11.264z m107.52-80.896l-5.12 14.848-3.072-9.216-52.736-5.12h-2.048l2.048 3.072 22.528 72.704h-26.112v9.728h82.432v-9.728h-30.72L542.72 421.888l27.136 2.56-6.656 18.944h26.112l12.288-34.304h-27.136z m130.56 0l-46.08-0.512-5.632 10.24h25.6V504.832h-23.04l-24.576-96.256h-26.112l24.576 96.256h-33.28v9.728h35.328l8.192 31.744h26.112l-8.192-31.744h46.592v-105.984zM369.152 453.12h74.752V424.96H369.152z"  horiz-adv-x="1024" />

    
    <glyph glyph-name="project_data" unicode="&#59056;" d="M1039.01832184 135.14083447999997A184.10888672 184.10888672 0 1 0 839.65413411 355.74944164v-220.60860716h199.30768728z m2.82505591 56.50111597h-145.68812767V352.92438648999996A184.25013939 184.25013939 0 0 0 1041.84337775 191.64195044999997z m-141.25279028 216.87953392A240.12974341 240.12974341 0 0 1 675.12288411 16.74274587000002H173.59072764A35.7652068 35.7652068 0 0 0 137.82552083 52.507951899999966V648.39697266c0 19.77539063 16.01806641 35.7652068 35.7652068 35.7652068h71.50216185v-35.7652068a83.42389821 83.42389821 0 1 1 166.84779564 0V684.16217947h214.53473805v-35.76520681a83.42389821 83.42389821 0 0 1 166.84779566 0V684.16217947h71.50216261c19.77539063 0 35.7652068-16.01806641 35.76520603-35.76520681v-239.84723806z m-442.40373851-226.37172142a35.65220435 35.65220435 0 0 1 50.56849877 0l166.81954543 166.84779564a35.7652068 35.7652068 0 1 1-50.56849878 50.56849878l-141.53529565-141.56354587-58.16789943 58.13964843a35.7369558 35.7369558 0 1 1-50.56849878-50.56849954l83.45214843-83.42389744zM328.51678768 612.6600168499999a35.7652068 35.7652068 0 0 0-35.7652068 35.73695581V743.74260569a35.7652068 35.7652068 0 1 0 71.53041283 1e-8V648.42522288c0-19.74714039-16.01806641-35.7369558-35.76520603-35.7369558z m381.3825337 0c-19.77539063 0-35.7652068 15.98981617-35.7652068 35.73695581V743.74260569a35.7652068 35.7652068 0 1 0 71.53041283 1e-8V648.42522288c0-19.74714039-16.01806641-35.7369558-35.76520603-35.7369558z"  horiz-adv-x="1170" />

    
    <glyph glyph-name="offline_activity_data" unicode="&#59057;" d="M741.39453125 381.36328149999997v-142.3828125h129.1992185c-5.27343775 71.19140625-58.00781225 129.1992185-129.1992185 142.3828125zM633.28906225 420.91406275c15.8203125 5.27343775 31.640625 10.54687475 47.4609375 10.54687475v81.738281h-23.73046875l-23.73046875-92.28515575zM691.29687525 196.79296850000003V384c-81.738281-7.91015625-147.65625025-76.464844-147.65625025-160.8398435 0-89.64843725 73.82812475-160.8398435 163.47656275-160.83984425 79.1015625 0 145.019531 55.37109375 160.8398435 129.19921925h-176.660156v5.273437zM609.5585935 410.36718725h-5.273437l26.36718725 102.83203125h-34.2773435v10.5468755h36.914062l7.91015625 34.2773435h26.367188l-7.91015625-34.2773435h50.097656v-89.648438c42.18749975 0 84.37500025-13.183594 118.65234375-36.914062-7.91015625 26.36718725-15.8203125 42.18749975-15.8203125 42.18749975L907.5078125 631.8515622499999h-216.21093725V729.4101565H211.4140625v2.6367185C211.4140625 758.41406225 190.32031225 779.5078125 163.953125 779.5078125S116.4921875 758.41406225 116.4921875 732.046875v-696.09375c0-26.36718725 21.09375025-47.4609375 47.4609375-47.4609375s47.4609375 21.09375025 47.4609375 47.4609375v210.93750025h284.765625c7.91015625 73.82812475 52.73437525 131.83593775 113.378906 163.476562zM272.058594 555.3867190000001h26.36718725l15.8203125-34.27734425H301.06249975l15.8203125-31.640625h-26.36718725l-18.457031 34.27734425h15.8203125l-15.8203125 31.640625zM301.06249975 410.36718725H274.6953125l18.457031 71.19140625h26.367188L301.06249975 410.36718725z m155.5664065 87.01171875h-52.73437525v-23.73046875h50.09765675V410.36718725H327.42968775v60.6445315h50.097656v23.73046875H319.5195315v10.54687475h58.00781225V536.9296872499999l-52.73437525-2.6367185v13.183594l100.19531275 5.273437v2.63671925h26.36718725V542.203125l-50.097656-2.6367185v-31.640625H459.26562475l-2.6367185-10.5468755zM501.45312525 542.203125h87.01171875v-10.54687475h-87.01171875V542.203125z m2.6367185-131.83593775v2.63671925l23.73046875 76.46484325h-26.36718725v10.5468755h87.01171875v-10.5468755h-31.640625l-21.09375025-65.9179685 29.0039065 2.6367185-7.91015625 21.09375025h26.36718725l13.183594-36.91406275h-26.367188l-5.273437 15.8203125-2.63671925-10.54687475-58.00781225-5.27343775zM348.52343725 455.19140625h81.73828175v-29.0039065H348.52343725z"  horiz-adv-x="1024" />

    
    <glyph glyph-name="online_course_data" unicode="&#59058;" d="M893.64095052 199.29785156000003h147.91992187c-8.30566406 83.45214844-69.21386719 151.08398438-147.91992187 167.6953125v-167.6953125zM879.79817708 779.5078125H194.38313802C163.13802083 779.5078125 137.82552083 754.1953125 137.82552083 722.95019531v-460.37109375c0-31.24511719 25.3125-56.55761719 56.55761719-56.55761719h292.67578125v-54.58007812H365.24251302c-22.54394531 0-41.1328125-18.19335938-41.1328125-41.1328125s18.19335938-41.1328125 41.1328125-41.1328125h277.25097656c-12.65625 25.70800781-20.56640625 53.39355469-23.73046875 81.87011719h-31.640625V206.02148437000005h31.640625c6.328125 63.67675781 37.17773438 122.60742188 86.22070313 163.74023438H298.4016927c-15.02929688 0-27.29003906 12.26074219-27.29003906 27.29003906s12.26074219 27.29003906 27.29003907 27.29003906l515.7421875-2.37304687c40.73730469 7.51464844 83.05664063 3.95507813 122.21191406-10.28320313V722.95019531c0 31.24511719-25.3125 56.55761719-56.55761719 56.55761719zM376.71223958 533.89746094H298.00618489c-15.02929688 0-27.29003906 12.26074219-27.29003906 27.29003906s12.26074219 27.29003906 27.29003906 27.29003906h78.31054688c15.02929688 0 27.29003906-12.26074219 27.29003906-27.29003906s-11.86523438-27.29003906-26.89453125-27.29003906z m334.20410156 15.42480468H462.53743489c-14.23828125 0-25.70800781 11.46972656-25.70800781 25.70800782s11.46972656 25.70800781 25.70800781 25.70800781h247.98339844c14.23828125 0 25.70800781-11.46972656 25.70800781-25.70800781s-11.07421875-25.70800781-25.3125-25.70800782zM837.08333333 369.76171875c-93.73535156-9.88769531-166.90429688-91.36230469-166.90429688-190.23925781 0-105.60058594 83.45214844-191.03027344 186.28417969-191.03027344 90.57128906 0 166.11328125 66.4453125 182.72460938 154.24804688h-202.10449219v227.02148437z"  horiz-adv-x="1169" />

    
    <glyph glyph-name="operation_data" unicode="&#59059;" d="M146.15527344 393.88769531l136.84570312-136.84570312 157.80761719 158.203125-136.84570312 136.45019531zM619.18261719 310.83105469c37.57324219 30.45410156 84.63867188 46.66992188 133.28613281 46.66992187 32.03613281 0 63.67675781-7.11914063 92.54882813-20.96191406V726.90527344c0 5.53710938-0.79101563 10.67871094-2.37304688 15.8203125l-327.48046875-327.48046875 104.01855469-104.4140625zM477.59082031 452.02734375L803.48925781 777.92578125c-3.95507813 0.79101563-7.91015625 1.18652344-11.86523437 1.18652344H531.77539063L341.140625 588.87304688l136.45019531-136.84570313zM169.09472656 779.5078125C140.22265625 779.5078125 116.4921875 755.77734375 116.4921875 726.90527344v-288.32519531L457.41992187 779.5078125H169.09472656zM477.98632812 378.06738281L150.11035156 50.19140625c5.93261719-2.37304688 12.65625-3.55957031 19.37988281-3.55957031h399.06738282c-17.79785156 31.24511719-27.29003906 66.4453125-26.89453125 102.04101562 0 44.69238281 14.63378906 88.59375 41.52832031 124.18945313l-105.20507813 105.20507812zM907.5078125 165.6796875zM116.4921875 349.59082031V99.234375c0-2.76855469 0-5.14160156 0.39550781-7.91015625l128.93554688 128.54003906L116.4921875 349.59082031zM759.58789063 307.66699219v-141.98730469H907.5078125c-8.30566406 75.9375-70.40039063 136.0546875-147.91992188 141.98730469zM710.14941406 304.10742187000005c-71.98242188-16.21582031-125.37597656-79.89257813-125.37597656-155.83007812 0-88.19824219 72.37792969-159.78515625 161.76269531-159.78515625 78.31054688 0 143.96484375 54.97558594 158.59863282 128.14453125l-195.38085938 0.39550781v187.07519532z"  horiz-adv-x="1024" />

    
    <glyph glyph-name="teacher_data" unicode="&#59060;" d="M278.016 331.264c-87.552-9.216-154.112-82.944-154.112-171.008 0-94.72 76.8-172.032 171.52-172.032 81.408 0 151.552 57.344 167.936 136.704H278.016v206.336zM822.784 258.55999999999995l145.408 251.392-62.976 36.352-145.92-252.928c-35.328 14.336-73.216 24.064-102.4 29.184v6.144c84.48 59.392 83.968 161.792 83.968 245.248v12.8c0 120.832-74.24 192.512-198.144 192.512h-6.144c-119.296 0-184.832-68.608-184.832-192.512 0-62.464 0-189.952 97.792-257.536l5.632-6.144c45.568-42.496 65.024-100.864 65.024-163.328 0-41.472-11.264-81.92-33.28-117.248 16.896-1.024 34.816-1.024 53.248-1.024 266.752 0 322.56 81.408 322.56 149.504-0.512 26.624-16.384 49.152-39.936 67.584zM330.752 328.70399999999995v-150.528h135.68c-7.68 74.24-62.464 135.168-135.68 150.528z"  horiz-adv-x="1092" />

    
    <glyph glyph-name="online_course" unicode="&#59061;" d="M605.184 158.20799999999997v-84.992H732.16c23.552 0 42.496-18.944 42.496-42.496 0-23.552-18.944-42.496-42.496-42.496H365.056c-23.552 0-42.496 18.944-42.496 42.496 0 23.552 18.944 42.496 42.496 42.496h126.976v84.992H181.248c-31.232 0-56.32 25.088-56.32 56.32V722.944c0 31.232 25.088 56.32 56.32 56.32h734.72c31.232 0 56.32-25.088 56.32-56.32v-508.416c0-31.232-25.088-56.32-56.32-56.32h-310.784zM266.24 581.6320000000001c-15.36 0-28.16-12.8-28.16-28.16s12.8-28.16 28.16-28.16h84.992c15.36 0 28.16 12.8 28.16 28.16s-12.8 28.16-28.16 28.16H266.24z m197.632 0c-15.36 0-28.16-12.8-28.16-28.16s12.8-28.16 28.16-28.16h282.624c15.36 0 28.16 12.8 28.16 28.16s-12.8 28.16-28.16 28.16H463.872zM266.24 384c-15.36 0-28.16-12.8-28.16-28.16S250.88 327.67999999999995 266.24 327.67999999999995h565.248c15.36 0 28.16 12.8 28.16 28.16s-12.8 28.16-28.16 28.16H266.24z"  horiz-adv-x="1097" />

    
    <glyph glyph-name="exam_data" unicode="&#59062;" d="M969.216 135.168c-20.48-99.328-118.272-163.328-217.6-142.848s-163.328 118.272-142.848 217.6c16.384 78.336 81.408 137.216 161.28 145.408v-220.672l199.168 0.512z m3.072 56.32h-145.92v161.28c78.848-16.384 137.728-81.408 145.92-161.28z m-141.312 217.088c-13.824 2.56-28.16 3.584-42.496 3.584-69.12 0-134.656-29.696-180.224-81.408-7.168-1.024-13.824-4.096-18.944-8.704l-138.24-125.44-56.832 51.2c-6.656 6.144-15.872 9.216-24.576 9.216-19.456 0-34.816-14.336-34.816-31.744 0-8.704 4.096-16.896 10.24-22.528l81.408-73.728c6.144-5.632 14.848-9.216 24.576-9.216s18.432 3.584 24.576 9.216l73.728 66.56c-8.192-78.848 23.552-156.672 83.968-207.872H236.544c-61.952 0-111.616 51.712-111.616 116.224V663.552c0 64.512 49.664 116.224 111.616 116.224h482.816c61.952 0 111.616-51.712 111.616-116.224v-254.976z m-529.92 3.584V609.7919999999999H237.568v-197.632h63.488z m208.384 0V609.28H326.144v-197.12h183.296z m208.384 0V609.28h-183.296v-197.12h183.296z m-329.728 26.624V583.6800000000001h58.88v-144.896H388.096z m208.384 0V583.6800000000001H655.36v-144.896h-58.88z"  horiz-adv-x="1097" />

    
    <glyph glyph-name="project_records" unicode="&#59063;" d="M916.48 542.2080000000001h-247.296c-18.432 0-31.232 12.8-31.232 31.744s12.288 31.744 31.232 31.744H916.48c18.432 0 31.232-12.8 31.232-31.744s-12.8-31.744-31.232-31.744z m-278.016-94.72c0 18.944 12.288 31.744 31.232 31.744h123.392c18.432 0 31.232-12.8 31.232-31.744s-12.288-31.744-31.232-31.744h-123.904c-18.432 0-30.72 12.8-30.72 31.744z m278.016-284.672H359.936c-18.432 0-31.232 12.8-31.232 31.744s12.8 31.744 31.232 31.744H916.48c18.432 0 31.232-12.8 31.232-31.744 0-18.432-12.8-31.744-31.232-31.744zM331.776 570.88c0 18.944 12.288 31.744 31.232 31.744h182.272c18.432 0 31.232-12.8 31.232-31.744v-186.368c0-18.944-12.288-31.744-31.232-31.744H363.008c-18.432 0-31.232 12.8-31.232 31.744V570.88z m649.728 160.768H297.984c-52.736 0-92.672-44.032-92.672-94.72v-505.856c0-53.76 39.936-94.72 92.672-94.72h683.52c52.736 0 92.672 40.96 92.672 94.72V637.44c0.512 50.176-40.448 94.208-92.672 94.208z"  horiz-adv-x="1280" />

    
    <glyph glyph-name="user" unicode="&#59064;" d="M632.02343725 290.60742161999997v6.53906275c91.54687475 63.51855469 91.25683619 173.390625 91.0195315 262.56445288l-0.02636693 13.44726562c0 129.1992185-80.34082057 206.34960963-214.97167995 206.34960963h-6.77636744C372.1484375 779.5078125 301.03613281 706.207031 301.03613281 573.18457057c0-67.13085963 0-203.37011719 105.6796875-276.06445313v-5.29980469C284.1875 275.05078149999997 169.22656275 226.27148437000005 169.22656275 148.75195312000005 169.22656275 40.91015649999997 279.07226537-11.5078125 505.01269557-11.5078125 794.1289065-11.5078125 854.77343725 75.66210937000005 854.77343725 148.75195312000005c0 83.16210912-141.61816381 126.77343775-222.75 141.8554685"  horiz-adv-x="1024" />

    
    <glyph glyph-name="position_management" unicode="&#59065;" d="M632.69786072 578.83703614c4.49890137-1.97753906 8.87420654-3.26293945 11.86523438-3.26293947 6.62475586 0 19.89898682 6.17980958 19.89898681 12.35961915l139.16931152 148.31542969c6.6494751 6.17980958 6.6494751 18.53942872 0 30.89904785-6.60003662 12.35961914-19.87426758 12.35961914-33.12377929 12.35961914l-212.09106446-49.43847656a71.66107177 71.66107177 0 0 0-7.58880615-5.809021A133.68164063 133.68164063 0 0 1 511.99382019 730.06933594c-11.69219971 0-23.18664551-1.58203125-34.18670654-4.47418213A22.66754151 22.66754151 0 0 1 465.59580994 730.06933594L253.48002625 779.5078125C240.23051453 779.5078125 226.95628357 779.5078125 220.35624695 767.14819336c-6.6494751-12.35961914-6.6494751-24.71923828 0-30.89904786l139.16931152-142.13562011c6.6494751-6.17980958 13.27423096-12.35961914 19.89898682-12.35961914 2.89215088 0 7.04498291 0 10.80230713 0.49438477 7.51464844-26.64733887 24.74395752-48.91937256 47.31262206-64.2453003-28.35296631-17.3034668-47.65869141-43.67889404-51.49017333-72.20489502l-13.24951172-142.13562012c0-18.53942872 13.24951172-30.89904786 26.49902344-30.89904785 1.33483887 0 2.59552002 0.07415771 3.85620117 0.17303467 0.91461182-0.07415771 1.8045044-0.17303467 2.76855468-0.17303467 0 0 3.90563965 0.02471924 8.67645264 2.79327393a32.62939453 32.62939453 0 0 1 10.30792236 6.30340576l160.30426026 81.9442749 5.63598633-61.77337646-209.81689453-117.34222412c-4.94384766-1.38427734-9.22027588-3.60900879-12.60681153-6.37756348-14.41131592-6.92138672-14.9798584-21.80236817-10.0112915-33.0001831-3.31237793-40.68786622 10.28320313-85.03417969 40.88562012-113.56018067C432.4473114 7.031616210000038 472.2205658-11.5078125 511.99382019-11.5078125s79.54650879 18.53942872 112.69500733 43.258667c26.49902344 30.89904786 46.39801026 80.33752442 39.77325439 123.59619139L637.93833924 445.7980957c-3.83148193 28.52600097-23.13720703 54.92614747-51.49017335 72.20489503 21.57989502 14.68322754 38.26538086 35.69458008 46.24969483 60.8340454"  horiz-adv-x="1024" />

    
    <glyph glyph-name="organization" unicode="&#59066;" d="M858.06933594 285.12304687000005h-98.87695313v74.144531c0 27.29003906-22.1484375 49.4648435-49.43847656 49.46484426h-173.04785182V482.87695313h74.1708987c27.29003906 0 49.43847656 22.1484375 49.43847656 49.43847656v197.75390625C660.31542969 757.359375 638.16699219 779.5078125 610.87695313 779.5078125h-197.75390626c-27.29003906 0-49.43847656-22.1484375-49.43847656-49.43847656v-197.75390625c0-27.29003906 22.1484375-49.43847656 49.43847657-49.43847657h74.14453099v-74.14453099H314.24609375c-27.29003906 0-49.43847656-22.1484375-49.43847656-49.46484426v-74.14453099h-98.87695313C138.640625 285.12304687000005 116.4921875 262.97460937000005 116.4921875 235.68457031000003v-197.75390625C116.4921875 10.640625 138.640625-11.5078125 165.93066406-11.5078125h197.75390625c27.29003906 0 49.43847656 22.1484375 49.43847656 49.43847656v197.75390625c0 27.29003906-22.1484375 49.43847656-49.43847656 49.43847657H314.24609375v74.14453099h395.5078125v-74.144531h-49.43847656c-27.29003906 0-49.43847656-22.1484375-49.43847657-49.43847656v-197.75390625c0-27.29003906 22.1484375-49.43847656 49.43847657-49.43847656h197.75390625C885.359375-11.5078125 907.5078125 10.640625 907.5078125 37.930664060000026v197.75390625c0 27.29003906-22.1484375 49.43847656-49.43847656 49.43847656"  horiz-adv-x="1024" />

    
    <glyph glyph-name="group" unicode="&#59068;" d="M553.472 268.79999999999995c75.264-13.824 206.336-54.272 206.336-131.584 0-67.584-56.32-148.48-324.096-148.48-209.408 0-311.296 48.64-311.296 148.992 0 71.68 106.496 117.248 220.16 132.608v5.12c-97.792 67.584-97.792 194.048-97.792 256 0 123.392 66.048 191.488 185.344 191.488h6.144c124.928 0 199.168-71.68 199.168-191.488v-12.288c0-82.944 0.512-184.832-84.48-243.712v-6.656h0.512z m388.608-104.448c-16.384 0-29.696 12.8-30.208 29.184-0.512 21.504-96.256 81.408-186.368 91.648-14.848 1.536-26.624 13.824-26.624 29.184v60.928c0 8.704 4.096 17.408 11.264 23.04 51.2 39.424 89.6 125.952 89.6 200.704 0 100.864-70.144 121.856-129.024 121.856-16.896 0-30.208 13.312-30.208 29.184 0 16.384 13.312 29.184 30.208 29.184 117.248 0 189.952-69.12 189.952-180.736 0-87.04-41.984-183.808-101.376-237.056v-22.528c87.04-17.92 213.504-76.8 213.504-145.408-0.512-16.384-13.824-29.184-30.72-29.184z"  horiz-adv-x="1097" />

    
    <glyph glyph-name="role_management" unicode="&#59070;" d="M725.504 516.608h-123.904c-29.184 0-52.736-23.552-52.736-52.736v-1.024c0.512-39.936 3.072-79.872 5.632-119.808l-27.136 14.848c-62.464-134.144-105.984-134.144-167.936 0l-49.152-26.624c76.8-164.864 169.472-176.128 248.32-33.28 9.728-86.016 26.112-152.064 49.152-199.168-43.52-57.344-98.304-86.016-164.864-86.016-187.392 0-284.672 229.376-291.328 687.616-0.512 29.184 23.04 53.248 52.224 53.76h478.208c29.184 0 52.736-23.552 52.736-52.736v-1.024c-1.536-60.928-4.096-122.368-9.216-183.808zM257.024 595.9680000000001v-52.736h132.608V595.9680000000001H257.024z m238.592 0v-52.736h132.608V595.9680000000001H495.616z m158.72-132.096h238.08c29.184 0 52.736-23.552 52.736-52.736v-1.536c-7.168-246.272-64.512-369.152-172.032-369.152s-164.864 122.88-172.032 369.152c-1.024 29.184 22.016 53.76 51.2 54.784 1.536-0.512 2.048-0.512 2.048-0.512z m9.728-91.136v-30.208H742.4v30.208h-78.336z m141.312 0v-30.208h78.336v30.208h-78.336z m-110.08-150.528c48.64-101.376 108.032-101.376 157.184 0l-28.672 14.848c-36.864-76.8-62.976-76.8-99.328 0l-29.184-14.848z"  horiz-adv-x="1097" />

    
    <glyph glyph-name="integral" unicode="&#59071;" d="M512 779.5078125c218.425781 0 395.5078125-177.0820315 395.5078125-395.5078125 0-218.425781-177.0820315-395.5078125-395.5078125-395.5078125-218.425781 0-395.5078125 177.0820315-395.5078125 395.5078125C116.4921875 602.4257809999999 293.574219 779.5078125 512 779.5078125z m92.33789037-280.96875c-20.80371094 19.77539063-42.08203125 31.71972656-69.24023412 36.22851563V581.75390625h-53.28808619v-47.88281225c-45.16699219-9.83496068-75.46289063-42.87304688-75.46289063-86.08886769 0-44.77148438 23.33496094-65.54882838 80.86816457-91.44140625l6.59179662-2.95312475c45.32519531-20.3554685 59.69531275-32.40527369 59.69531276-56.63671875 0-23.86230494-15.8203125-37.28320287-48.56835938-37.28320287-26.20898412 0-49.91308594 9.91406225-73.43261769 28.39746094l-9.70312449 7.64648387-33.40722707-42.37206981 9.33398437-7.69921926c22.1484375-18.246094 53.12988307-32.06249975 84.11132863-36.96679662v-46.93359349h53.2617185V209.18554687000005c49.30664037 9.62402369 80.60449219 43.26855469 80.60449219 90.01757813 0 48.832031-25.33886693 73.27441381-80.94726537 97.74316432l-15.66210938 6.77636668c-37.96875 16.50585963-50.5195315 26.89453125-50.5195315 45.66796925 0 20.30273463 15.89941406 33.98730494 41.97656275 33.98730418 23.519531 0 36.5976565-5.85351563 56.47851563-23.3876948l8.64843724-7.64648463 37.94238307 37.36230443-9.28125051 8.80664114z"  horiz-adv-x="1024" />

    
    <glyph glyph-name="banner1" unicode="&#59077;" d="M952.832 399.36l59.392-63.488v-256h-352.256V688.1279999999999h245.248l-36.864-81.408h-107.52v-175.616h144.384V688.1279999999999h99.84v-231.936L952.832 399.36z m-43.008-238.08v189.44h-148.992v-189.44h148.992z m333.824 146.944h119.808l-29.696-83.456h-107.008l-26.624-144.896h-107.008l115.712 608.256H1392.64l116.224-608.256H1402.88l-40.448 228.352-53.76 298.496h-15.872l-49.152-298.496z m587.264-228.352l-138.24 423.424v-423.424h-100.864V688.1279999999999h112.64l137.728-430.592V688.1279999999999h99.84v-608.256h-111.104z m432.128 0l-138.24 423.424v-423.424h-100.864V688.1279999999999h112.64l137.728-430.592V688.1279999999999h99.84v-608.256H2263.04z m510.464 79.36l-22.016-79.36h-295.424V688.1279999999999h316.416l-22.528-79.36h-193.024v-177.664h206.848l-22.016-80.384h-184.832v-191.488h216.576z m299.52-79.36L3004.928 332.79999999999995h-48.64v-252.928h-101.376V688.1279999999999H3066.88l-31.744-79.36h-78.336v-196.608H3066.88V688.1279999999999h100.864V332.79999999999995h-53.248l66.048-252.928h-107.52z"  horiz-adv-x="3840" />

    
    <glyph glyph-name="topic" unicode="&#59074;" d="M774.656 194.048H466.944l-124.928-165.888c-6.144-8.704-15.36-11.776-24.576-11.776h-9.216c-12.288 6.144-21.504 17.92-21.504 29.696v148.48h-33.28c-51.712 0-91.136 41.472-91.136 89.088V665.6c0 50.176 42.496 89.088 91.136 89.088h520.704c51.712 0 91.136-41.472 91.136-89.088v-382.464c1.024-50.176-41.984-89.088-90.624-89.088z m152.576 444.928c48.64 0 91.136-41.472 91.136-89.088v-323.072c0-47.616-39.424-82.944-91.136-82.944v-100.864c0-11.776-9.216-20.992-18.432-26.624-3.072-3.072-9.216-3.072-12.288-3.072-6.144 0-12.288 3.072-18.432 6.144L768.512 102.39999999999998h-146.432c-18.432 0-30.208 11.776-30.208 29.696s12.288 29.696 30.208 29.696h155.136c6.144 0 12.288 0 15.36-3.072l70.144-53.248v56.32c0 3.072 3.072 6.144 3.072 8.704v3.072c0 17.92 12.288 29.696 30.208 29.696h30.208c15.36 0 30.208 6.144 30.208 23.552V549.8879999999999c0 17.92-15.36 29.696-30.208 29.696-15.36 0-30.208 11.776-30.208 29.696s12.8 29.696 31.232 29.696z m-604.16-228.352c29.184 0 53.248 23.552 53.248 52.736 0 29.184-24.064 52.736-53.248 52.736s-53.248-23.552-53.248-52.736c0-29.184 23.552-52.736 53.248-52.736z m187.392 0c29.184 0 53.248 23.552 53.248 52.736 0 29.184-24.064 52.736-53.248 52.736s-53.248-23.552-53.76-52.736c0-29.184 24.064-52.736 53.76-52.736z m186.88 0c29.184 0 53.248 23.552 53.248 52.736 0 29.184-24.064 52.736-53.248 52.736s-53.248-23.552-53.248-52.736c0-29.184 24.064-52.736 53.248-52.736z"  horiz-adv-x="1181" />

    
    <glyph glyph-name="qa" unicode="&#59078;" d="M806.912 272.384h192V592.384h130.048v-367.616h-92.672l65.536-48.64h-165.888l-68.608 48.64h-189.952V592.384h321.536l-46.592-48.128h-145.408v-271.872z m582.144 90.112h154.624l-37.888-50.688h-137.728l-34.304-87.552h-137.728l149.504 367.616H1582.08l150.016-367.616h-136.192l-52.224 138.24L1474.048 542.72h-20.48l-64.512-180.224z"  horiz-adv-x="2408" />

    
    <glyph glyph-name="notice" unicode="&#59075;" d="M512 43.00800000000004c-19.968 0-38.4 11.264-51.712 30.208 16.896-1.536 34.304-3.072 51.712-3.072 17.408 0 34.816 1.024 51.712 3.072-13.312-18.944-31.744-30.208-51.712-30.208zM483.328 697.856c0 14.848 12.8 27.136 28.672 27.136s28.672-12.288 28.672-27.136v-1.024c-6.144 0.512-12.8 1.024-18.944 1.024h-18.944c-6.144 0-12.8-0.512-18.944-1.024v1.024z m366.08-502.784c-1.024 1.536-106.496 141.312-106.496 244.736 0 143.36-68.096 217.088-145.408 244.736v13.312c0 45.056-38.4 81.92-85.504 81.92s-85.504-36.864-85.504-81.92v-12.8C349.184 657.408 281.088 583.6800000000001 281.088 439.808c0-103.424-105.472-243.2-106.496-244.736-4.608-6.144-6.656-14.336-4.608-22.016s7.168-14.336 14.336-17.92c5.12-2.56 95.744-48.64 208.384-72.192 18.944-56.832 66.048-94.72 119.296-94.72s100.352 38.4 119.296 94.72c112.64 23.04 203.264 69.12 208.384 71.68 7.168 3.584 12.288 10.24 14.336 17.92 2.048 8.192 0 16.384-4.608 22.528z"  horiz-adv-x="1024" />

    
    <glyph glyph-name="news" unicode="&#59079;" d="M846.336 163.84000000000003l-94.72 306.176V163.84000000000003h-69.12V603.648h77.312l94.72-311.296V603.648h68.608V163.84000000000003h-76.8z m369.664 57.344l-14.848-57.344h-202.24V603.648h216.576l-15.36-57.344h-132.096v-128.512h141.824l-14.848-58.368h-126.464v-138.24h147.456zM1334.272 604.1600000000001l30.72-283.136 49.152 283.136h31.744l44.032-277.504 29.184 277.504h65.536l-49.152-439.808h-70.144l-37.888 210.432-35.84-210.432H1320.96L1268.224 604.1600000000001h66.048z m372.224-56.32v-131.584h93.184l-24.064-56.832h-138.752V603.648h240.64L1864.704 547.8399999999999h-158.208z m163.328-384h-232.96v57.344h163.328V416.256h69.632V163.84000000000003z"  horiz-adv-x="2560" />

    
    <glyph glyph-name="phone" unicode="&#59076;" d="M737.792 779.264H286.208c-35.328 0-64.512-25.088-64.512-56.32v-677.888c0-31.232 28.672-56.32 64.512-56.32H737.28c35.328 0 64.512 25.088 64.512 56.32V722.944c0 31.232-28.672 56.32-64 56.32zM512 44.54399999999998c-35.328 0-64.512 25.088-64.512 56.32s28.672 56.32 64.512 56.32c35.328 0 64.512-25.6 64.512-56.32s-29.184-56.32-64.512-56.32z m193.536 169.984H318.464V694.784h386.56v-480.256z"  horiz-adv-x="1024" />

    
    <glyph glyph-name="wechat" unicode="&#59080;" d="M925.184 315.39200000000005c-22.528 0-41.472 17.92-41.472 39.424 0 22.016 18.432 39.424 41.472 39.424s41.472-17.92 41.472-39.424c-0.512-21.504-18.432-39.424-41.472-39.424z m-204.8 0c-22.528 0-41.472 17.92-41.472 39.424 0 22.016 18.432 39.424 41.472 39.424s41.472-17.92 41.472-39.424-18.432-39.424-41.472-39.424z m396.288-44.032c0 134.144-131.584 243.2-293.888 243.2s-293.888-109.056-293.888-243.2 131.584-243.2 293.888-243.2c33.28 0 66.048 4.608 97.792 13.824l105.984-53.76-28.16 88.064s1.536 1.024 2.56 1.536c70.656 45.056 115.712 114.688 115.712 193.536zM370.176 543.744c-27.136 0-48.64 20.992-48.64 46.592 0 26.112 22.016 46.592 48.64 46.592 27.136 0 48.64-20.992 48.64-46.592s-22.016-46.592-48.64-46.592z m242.176 93.696c27.136 0 48.64-20.992 48.64-46.592s-22.016-46.592-48.64-46.592c-27.136 0-48.64 20.992-48.64 46.592-0.512 25.6 21.504 46.592 48.64 46.592z m207.872-101.376c5.12 0 9.728 0 14.848-0.512-25.6 138.24-169.984 243.712-344.064 243.712-192 0-348.16-129.024-348.16-287.744 0-93.184 53.76-176.128 136.704-228.864 1.024-0.512 3.072-2.048 3.072-2.048l-33.792-104.448L375.296 220.15999999999997s4.096-1.024 5.632-1.536c43.52-11.776 88.576-16.384 133.632-13.824-7.168 22.016-10.752 45.568-11.264 68.608 0 144.896 141.824 262.656 316.928 262.656z"  horiz-adv-x="1260" />

    
    <glyph glyph-name="nav" unicode="&#59082;" d="M237.92 731.52h695.04c29.76 0 53.28-24 53.28-53.28v-588.48c0-29.76-24-53.28-53.28-53.28H237.92c-29.76 0-53.28 24-53.28 53.28V678.24c0 29.28 24 53.28 53.28 53.28z m-3.36-248.16v-343.68c0-29.76 24-53.28 53.28-53.28h594.72c29.76 0 53.28 24 53.28 53.28V483.36H234.56z m75.36 74.4c27.36 0 49.92 22.08 49.92 49.44 0 27.36-22.56 49.44-49.92 49.44s-49.92-22.08-49.92-49.44c-0.48-27.36 22.08-49.44 49.92-49.44z m175.2 0c27.36 0 49.92 22.08 49.92 49.44 0 27.36-22.56 49.44-49.92 49.44S435.2 634.56 435.2 607.2c0-27.36 22.56-49.44 49.92-49.44z m175.68 0c27.36 0 49.92 22.08 49.92 49.44 0 27.36-22.56 49.44-49.92 49.44s-49.92-22.08-49.92-49.44c0-27.36 22.08-49.44 49.92-49.44z"  horiz-adv-x="1181" />

    
    <glyph glyph-name="mobile_setting" unicode="&#59083;" d="M716.8 342.528h-2.56l-29.184 17.408c-20.48 12.288-45.568 14.848-68.096 6.144V712.192h-399.36v-473.6H542.72l-29.184-16.384c-24.576-13.824-39.936-39.936-39.936-68.096v-27.136c0-27.648 14.848-53.248 38.4-67.072l30.208-17.92 2.56-5.12-0.512-33.28c0-4.608 0-9.728 1.024-14.336H184.832c-36.864 0-66.56 26.112-66.56 58.368V747.52c0 32.256 29.696 58.368 66.56 58.368h465.92c36.864 0 66.56-26.112 66.56-58.368v-404.992z m188.928-187.392v-27.136c0-9.216-5.12-17.92-12.8-23.04l-31.232-19.456c-6.144-3.584-10.752-8.704-14.336-14.848l-6.144-10.752c-3.072-6.144-5.12-12.8-5.12-19.456l-0.512-37.888c0-9.216-5.12-18.432-13.312-23.04l-22.528-13.312c-8.192-5.12-18.944-5.12-27.136 0l-29.696 17.408c-6.144 3.584-13.824 5.632-20.992 5.632h-10.752c-7.168 0-14.336-2.048-20.48-5.632l-32.256-18.432c-4.096-2.048-8.704-3.584-13.312-3.584-4.608 0-9.728 1.536-13.824 3.584l-22.016 13.312c-8.192 5.12-13.312 14.336-13.312 24.064l0.512 36.352c0 7.168-1.536 14.336-5.12 20.48l-5.632 9.728c-3.584 6.144-8.704 11.264-14.848 14.848l-32.768 19.456c-8.192 5.12-13.312 13.824-13.312 23.552V153.60000000000002c0 9.728 5.12 18.944 13.824 23.552l31.744 17.408c6.656 3.584 11.776 9.216 15.872 15.36l5.12 9.216c3.584 6.144 5.12 13.312 5.12 20.48l-1.024 38.4c0 9.728 4.608 18.944 13.312 24.064l22.016 12.8c8.704 5.12 18.944 5.12 27.648 0l31.744-18.944c6.656-4.096 13.824-5.632 20.992-5.632h9.216c7.68 0 15.36 2.048 22.016 6.144l29.184 18.432c8.704 5.632 19.456 5.632 28.16 0.512l22.016-13.312c8.192-4.608 13.312-13.824 13.312-23.04l0.512-39.424c0-6.656 2.048-13.312 5.12-19.456l5.632-10.24c3.584-6.144 8.704-11.776 14.848-15.36l30.208-17.408c9.216-3.584 14.336-12.288 14.336-22.016z m-189.952-66.56c34.816 0 63.488 28.16 63.488 62.976 0 34.816-28.672 62.976-63.488 62.976-34.816 0-63.488-28.16-63.488-62.976 0-34.816 28.16-62.976 63.488-62.976z"  horiz-adv-x="1024" />

    
    <glyph glyph-name="setting" unicode="&#59084;" d="M548.352 243.712c-76.288 0-138.24 62.976-138.24 140.288 0 77.312 61.952 140.288 138.24 140.288s138.24-62.976 138.24-140.288c0-77.312-61.952-140.288-138.24-140.288zM971.776 414.72c0 21.504-11.776 40.96-30.208 51.712l-67.584 38.912c-13.824 8.192-25.6 19.456-33.28 33.792l-12.8 23.04c-7.68 12.8-11.264 27.648-11.776 42.496l-1.024 87.04c-0.512 20.992-11.776 39.936-29.696 50.688l-49.152 28.672c-19.456 11.264-43.52 11.264-62.464-1.024l-65.024-40.448c-14.848-9.216-31.232-13.824-48.64-13.824h-20.992c-16.384 0-32.768 4.608-47.104 12.8l-70.144 41.984c-18.944 11.264-42.496 11.264-61.44 0l-48.64-28.672c-18.432-10.752-29.696-31.232-29.696-52.736l2.048-84.48c0.512-15.872-3.584-31.744-11.776-45.568l-11.776-20.48c-8.192-14.336-19.968-26.112-34.816-34.304l-70.144-38.912c-18.944-10.752-30.72-30.72-30.72-52.224l0.512-59.392c0-20.992 11.264-40.96 29.696-51.712l72.704-42.496c13.824-8.192 25.088-19.456 32.768-33.28l12.288-21.504c7.68-13.824 11.776-29.696 11.776-45.568l-1.536-80.384c-0.512-21.504 10.752-41.984 29.696-52.736l49.664-29.184c9.216-5.632 19.968-8.192 30.208-8.192 10.24 0 20.48 2.56 29.696 7.68l71.68 40.448c13.824 7.68 29.696 11.776 45.568 11.776h23.552c16.384 0 32.768-4.096 46.592-12.8l66.048-38.912c18.944-10.752 41.984-10.752 60.928 0l49.664 29.184c17.92 10.752 29.184 30.208 29.696 50.688l1.024 83.456c0 14.848 4.096 29.696 11.776 43.008l13.824 24.064c7.68 13.312 18.432 24.576 31.744 32.768l70.144 42.496c17.92 10.752 28.672 30.208 28.672 51.2l-1.536 60.928z"  horiz-adv-x="1097" />

    
    <glyph glyph-name="log" unicode="&#59085;" d="M711.204 536.086a45.879 45.879 0 0 0-46.142 45.668c0 25.18 20.645 45.615 46.142 45.615s46.143-20.434 46.143-45.615a45.879 45.879 0 0 0-46.143-45.668m15.03-364.606H296.315a30.586 30.586 0 0 0-30.744 30.428 30.586 30.586 0 0 0 30.744 30.428H726.26a30.586 30.586 0 0 0 30.744-30.428 30.586 30.586 0 0 0-30.744-30.428M311.768 627.37c25.497 0 46.142-20.435 46.142-45.616a45.879 45.879 0 0 0-46.142-45.668 45.879 45.879 0 0 0-46.143 45.668c0 25.18 20.646 45.615 46.143 45.615m199.362 0c25.497 0 46.142-20.434 46.142-45.615a45.879 45.879 0 0 0-46.142-45.668 45.879 45.879 0 0 0-46.143 45.668c0 25.18 20.646 45.615 46.143 45.615m155.645-244.186a30.586 30.586 0 0 0-30.77-30.428H296.448a30.586 30.586 0 0 0-30.77 30.428 30.586 30.586 0 0 0 30.77 30.427h339.557a30.586 30.586 0 0 0 30.77-30.427m122.08 396.325h-553.71c-50.89 0-92.286-40.948-92.286-91.283v-608.45c0-50.335 41.397-91.283 92.286-91.283h553.71c50.89 0 92.286 40.948 92.286 91.283v608.45c0 50.335-41.397 91.283-92.286 91.283"  horiz-adv-x="1024" />

    
    <glyph glyph-name="theme" unicode="&#59086;" d="M755.2 798.72c-21.504-18.432-375.296-502.272-375.296-502.272-21.504-27.648-12.288-74.24 21.504-96.256l9.216-6.144c33.792-21.504 76.8-12.288 95.232 24.576l9.216 18.432c52.224 102.4 264.704 508.416 276.992 536.064 6.144 18.432-3.072 31.232-18.432 31.232-6.144 3.584-12.288 0.512-18.432-5.632M142.848 392.192c0-83.968 24.576-161.28 70.656-223.232 27.648 58.88 107.52 58.88 119.808 58.88-15.36 49.664 15.36 96.256 15.36 96.256l304.64 409.088c-46.08 18.432-95.232 31.232-144.384 31.232-203.264 3.072-366.08-164.352-366.08-372.224m316.928 288.256c0 12.288 12.288 24.576 24.576 24.576s24.576-12.288 24.576-24.576-12.288-24.576-24.576-24.576-24.576 12.288-24.576 24.576M327.68 606.2080000000001c0 21.504 18.432 40.448 39.936 40.448 21.504 0 39.936-18.432 39.936-40.448s-18.432-40.448-39.936-40.448c-21.504 0-39.936 18.944-39.936 40.448M235.008 476.16c0 27.648 21.504 49.664 49.152 49.664s49.152-21.504 49.152-49.664c0-28.16-21.504-49.664-49.152-49.664s-49.152 21.504-49.152 49.664m323.072-248.32l-30.72-49.664c-49.152-49.664-79.872-31.232-79.872-31.232 24.576-65.024 0-108.544-12.288-123.904 24.576-6.144 49.152-9.216 76.8-9.216 52.224 0 98.304 9.216 144.384 31.232 3.072 0 3.072 3.072 3.072 3.072 21.504 15.36 12.288 34.304 6.144 43.52-9.216 12.288-12.288 24.576-12.288 40.448 0 52.736 58.368 96.256 132.096 96.256h21.504c12.288 0 36.864-9.216 46.08 24.576 0 3.072 0 3.072 3.072 6.144 0 3.072 3.072 6.144 3.072 6.144 6.144 15.36 6.144 15.36 6.144 18.432 9.216 34.304 15.36 71.168 15.36 111.616 0 102.4-39.936 192-104.448 260.608-72.192-142.848-144.896-285.184-218.112-428.032m-323.072-120.832c0-9.216 3.072-43.52 6.144-52.736 6.144-46.592-46.08-74.24-46.08-74.24s76.8-40.448 141.312 0C401.408 20.480000000000018 465.92 110.08000000000004 373.76 168.96000000000004c-21.504 12.288-39.936 18.432-55.296 18.432-49.664 0.512-80.384-43.008-83.456-80.384"  horiz-adv-x="1024" />

    
    <glyph glyph-name="email" unicode="&#59087;" d="M763.392 386.048L662.528 286.72c-5.632-6.144-15.36-6.144-21.504-0.512l-0.512 0.512-100.864 99.328-276.48-326.144c3.072-1.024 5.12-2.048 8.192-2.048h760.32c3.072 0 5.632 1.024 8.704 2.048l-276.992 326.144zM238.592 680.96c-1.024-4.096-2.048-7.68-2.048-11.776v-570.368c0-3.584 1.024-6.656 2.048-10.24l274.432 323.584L238.592 680.96z m827.392-11.776c0 4.096-1.024 8.192-2.048 11.776l-273.92-268.8 273.92-323.584c0.512 3.584 2.048 6.144 2.048 10.24V669.184z m-414.72-339.968l386.56 379.392c-2.048 0.512-3.584 1.536-6.144 1.536H270.848c-2.048 0-4.096-1.024-6.144-1.536l386.56-379.392z"  horiz-adv-x="1303" />

    
    <glyph glyph-name="warning" unicode="&#59088;" d="M512-11.5078125A395.5078125 395.5078125 0 1 0 512 779.5078125a395.5078125 395.5078125 0 0 0 0-791.015625zM455.49888404 610.00446462v-282.50558058h113.00223192V610.00446462H455.49888404z m0-339.00669654v-113.00223269h113.00223192V270.99776808H455.49888404z"  horiz-adv-x="1024" />

    
    <glyph glyph-name="error" unicode="&#59089;" d="M591.89257813 384l119.8953684 119.83886719L631.78236596 583.78794653 512 463.89257813 392.16113281 583.78794653 312.21205347 503.78236596 432.10742187 384 312.21205347 264.16113281l79.94907934-79.94907935L512 304.10742187000005l119.83886719-119.8953684 79.94907935 79.94907934L591.89257813 384zM512-11.5078125A395.5078125 395.5078125 0 1 0 512 779.5078125a395.5078125 395.5078125 0 0 0 0-791.015625z"  horiz-adv-x="1024" />

    
    <glyph glyph-name="apple" unicode="&#59092;" d="M849.87667433 215.45717063999996c0-3.27706495 1.13002221-6.49762867 1.1300222-10.84821384 0-85.31668505-93.79185279-212.83970435-195.49386182-212.83970435-42.37583717 0-85.99469899 30.22809743-132.89062499 30.22809666-53.67606005 0-98.31194163-33.50516161-136.28069164-33.50516161-52.54603783 0-99.44196462 44.296875-137.41071461 112.4372212C196.44126685 193.76074218999997 172.99330347 300.77385569 172.99330347 369.93122243000005c0 130.74358226 115.03627221 231.25906786 231.2025674 231.25906785 55.87960402 0 77.06752221-42.14983226 128.48353783-42.14983302 64.7502788 0 103.84905101 44.296875 150.80147825 44.296875 67.010324 0 110.57268382-38.87276808 142.94782399-77.80203661l-2.26004442-1.13002221c-49.1559712-33.44866039-75.9375-85.31668505-75.9375-144.75585938 0-73.45145067 35.7652068-124.30245558 101.70200904-158.88113817v-5.36760647z m-319.51381128 357.65206496v4.29408471c-2.26004443 11.86523438-3.39006663 22.71344899-3.3900674 31.35811964C527.02929688 700.63225414 596.29966529 758.99790747 673.3671875 779.5078125l1.13002221-4.35058594c1.13002221-10.73521217 2.26004443-20.50990502 2.26004442-28.08105468 0-96.16489967-70.40039063-151.30998851-146.33789062-174.02343751z"  horiz-adv-x="1024" />

    
    <glyph glyph-name="android" unicode="&#59093;" d="M612.43543698 710.70726411L653.90503442 770.08675615c1.9209351 1.97743324 1.9209351 5.9322997-1.97743324 7.90973217h-1.97743321c0 1.97743324-3.95486646 1.97743324-5.93229893 0l-43.33403518-61.35692451A231.81166103 231.81166103 0 0 1 509.94790231 734.4364613600001a206.21802604 206.21802604 0 0 1-86.72456696-17.79689755L381.81023606 775.96255772c0 3.95486646-3.95486646 3.95486646-5.93229971 2.0339306h-1.97743322c-1.97743324-1.97743324-3.95486646-5.9322997-1.97743324-7.90973218l39.43566684-57.4020588c-61.0744346-29.66149695-106.44240037-85.08612254-114.29563516-152.31884937h427.69053657c-9.83066725 65.31179098-51.24376734 120.67991919-112.3746993 150.34141614h0.11299629z m-191.18953485-87.00705763a21.92125843 21.92125843 0 0 0-21.69526589 21.69526666c0 11.86459863 9.83066725 21.80826216 21.69526589 21.80826215 11.86459863 0 21.69526666-9.94366354 21.69526665-21.80826215-1.97743324-11.86459863-9.8871654-21.7517648-21.69526665-21.75176479z m183.33630006 0a21.92125843 21.92125843 0 0 0-21.69526588 21.69526666c0 11.86459863 9.83066725 21.80826216 21.69526588 21.80826215 11.80810049 0 21.69526666-9.94366354 21.69526666-21.80826215 0-11.86459863-9.8871654-21.7517648-21.69526666-21.75176479zM224.06757022 528.61392228H216.27083432c-23.72919726 0-43.39053254-23.72919726-43.39053331-55.36812821v-174.12711076c0-29.66149695 19.71783343-55.36812744 43.39053331-55.36812821h9.83066726c23.61620098 0 43.3340344 23.72919726 43.3340344 55.36812821V473.24579407c-1.9209351 31.63893018-21.69526666 55.36812744-45.31146763 55.36812821H224.06757022z m583.45576918 0h-9.83066725c-23.72919726 0-43.39053254-23.72919726-43.39053255-55.36812821v-174.12711076c0-29.66149695 19.71783343-55.36812744 43.39053255-55.36812821h9.83066725c23.61620098 0 43.3340344 23.72919726 43.33403439 55.36812821V473.24579407c0 29.66149695-19.71783343 55.36812744-43.39053253 55.36812821z m-510.46023783-342.265426c0-23.72919726 19.71783343-43.50352882 43.33403518-43.50352881h39.43566607v-98.9281544c0-29.7179951 19.71783343-55.42462557 43.39053254-55.42462557h9.83066726c23.61620098 0 43.39053254 23.72919726 43.39053331 55.36812744v98.98465253h78.81483402v-98.9281544c0-29.7179951 19.66133528-55.42462557 43.39053331-55.42462557h9.83066726c23.67269911 0 43.3340344 23.72919726 43.3340344 55.36812744v98.98465253h35.48080039c23.67269911 0 43.39053254 19.77433156 43.39053254 43.50352881V530.59135552H297.00660343v-344.24285924z"  horiz-adv-x="1024" />

    
    <glyph glyph-name="go" unicode="&#59090;" d="M512 779.264c-218.624 0-395.776-177.152-395.776-395.776 0-218.624 177.152-395.264 395.776-395.264 218.112 0 395.264 177.152 395.264 395.264 0.512 218.624-176.64 395.776-395.264 395.776z m-16.384-665.088l-79.872 79.872 143.36 143.36H286.208v112.64h259.072L408.576 586.752l79.872 79.872L766.464 389.12l-270.848-274.944z"  horiz-adv-x="1024" />

    
    <glyph glyph-name="success" unicode="&#59091;" d="M512 779.264c-218.624 0-395.776-177.152-395.776-395.776 0-218.624 177.152-395.264 395.776-395.264 218.112 0 395.264 177.152 395.264 395.264 0.512 218.624-176.64 395.776-395.264 395.776z m-42.496-573.952l-79.872 79.872-79.872 79.872 79.872 79.872 79.872-79.872 198.656 197.632 80.384-80.896-279.04-276.48z"  horiz-adv-x="1024" />

    
    <glyph glyph-name="pie" unicode="&#59094;" d="M475.648 779.264v-475.648h432.128c-37.888-182.784-201.728-315.392-391.68-315.392-220.672 0-399.36 178.688-399.36 396.288 0 203.776 155.136 373.76 358.912 394.752z m92.672 0c182.784-34.816 320-172.032 338.944-338.944H568.32V779.264z"  horiz-adv-x="1024" />

    
    <glyph glyph-name="bar" unicode="&#59095;" d="M141.44 326.88h170.88v-285.12H141.44v285.12z m285.12 399.36h170.88v-684H426.56V726.24z m285.12-228h170.88v-456h-170.88v456z"  horiz-adv-x="1024" />

    
    <glyph glyph-name="banner" unicode="&#59096;" d="M729.25892999 400.29441978l97.7665186 59.746206V709.88839531H186.11160469v-651.77679062h651.77679062V332.40100386999995l-108.6294653 67.8934159zM373.49743199 622.98482345h198.24877403L639.63962129 709.88839531v-274.28939918H373.49743199V622.98482345zM647.78683117 145.01517654999998H373.49743199v203.68024708H647.78683117v-203.68024706z"  horiz-adv-x="1024" />

    


  </font>
</defs>
</svg>
