<?xml version="1.0" standalone="no"?>
<!DOCTYPE svg PUBLIC "-//W3C//DTD SVG 1.1//EN" "http://www.w3.org/Graphics/SVG/1.1/DTD/svg11.dtd" >
<!--
2013-9-30: Created.
-->
<svg>
<metadata>
Created by iconfont
</metadata>
<defs>

<font id="es-icon" horiz-adv-x="1024" >
  <font-face
    font-family="es-icon"
    font-weight="500"
    font-stretch="normal"
    units-per-em="1024"
    ascent="896"
    descent="-128"
  />
    <missing-glyph />
    
    <glyph glyph-name="appreciate" unicode="&#41049;" d="M873.6 480h-188.8c12.8 44.8 28.8 115.2 19.2 188.8-6.4 60.8-41.6 105.6-92.8 124.8-38.4 12.8-76.8 6.4-99.2-16-25.6-25.6-38.4-76.8-51.2-128-9.6-35.2-16-70.4-28.8-89.6-32-54.4-102.4-76.8-115.2-80H224c-19.2 0-32-12.8-32-32v-448c0-19.2 12.8-32 32-32h547.2C896-32 960 358.4 960 380.79999999999995c0 57.6-44.8 99.2-86.4 99.2z m-102.4-444.8h-448H256V416H332.8c22.4 6.4 108.8 38.4 150.4 108.8 16 25.6 25.6 64 35.2 105.6 9.6 38.4 19.2 86.4 35.2 99.2 3.2 3.2 19.2 6.4 38.4 0 16-3.2 41.6-19.2 48-67.2 12.8-102.4-32-201.6-32-201.6-3.2-9.6-3.2-22.4 3.2-32 6.4-9.6 16-16 25.6-16h236.8c6.4 0 25.6-12.8 25.6-32-3.2-67.2-83.2-345.6-128-345.6zM96 480c-19.2 0-32-12.8-32-32v-448c0-19.2 12.8-32 32-32s32 12.8 32 32V448c0 19.2-12.8 32-32 32z"  horiz-adv-x="1024" />

    
    <glyph glyph-name="edit" unicode="&#41057;" d="M800-64L224-64c-52.928 0-96 43.072-96 96L128 672c0 52.928 43.072 96 96 96l448 0c17.696 0 32-14.336 32-32s-14.304-32-32-32L224 704C206.368 704 192 689.6320000000001 192 672l0-640c0-17.664 14.368-32 32-32l576 0c17.664 0 32 14.336 32 32L832 544c0 17.664 14.304 32 32 32s32-14.336 32-32l0-512C896-20.927999999999997 852.928-64 800-64zM612 448c-8.192 0-16.384 3.136-22.624 9.376-12.512 12.512-12.512 32.736 0 45.248l318.016 318.016c12.512 12.512 32.736 12.512 45.248 0s12.512-32.736 0-45.248l-318.016-318.016C628.384 451.104 620.192 448 612 448zM480 448L288 448c-17.664 0-32 14.336-32 32s14.336 32 32 32l192 0c17.664 0 32-14.336 32-32S497.664 448 480 448zM672 256L288 256c-17.664 0-32 14.304-32 32s14.336 32 32 32l384 0c17.696 0 32-14.304 32-32S689.696 256 672 256z"  horiz-adv-x="1024" />

    
    <glyph glyph-name="favor_fill" unicode="&#41043;" d="M957.216 491.68c-3.808 11.36-13.632 19.68-25.504 21.504l-270.336 41.728-120.8 258.624C535.328 824.768 524.032 831.968 511.648 832c0 0-0.032 0-0.064 0-12.384 0-23.648-7.136-28.928-18.336l-121.856-258.016-270.72-40.8c-11.872-1.792-21.728-10.048-25.568-21.408-3.84-11.36-0.992-23.936 7.36-32.512l196.448-202.08L221.44-25.951999999999998c-1.984-12.096 3.104-24.256 13.12-31.328 9.984-7.072 23.168-7.808 33.888-1.92l241.824 133.024 241.312-133.856C756.416-62.65599999999995 761.76-64 767.104-64c0.256 0 0.48 0 0.64 0 17.696 0 32 14.304 32 32 0 3.968-0.704 7.776-2.016 11.296l-44.896 278.688 196.928 201.248C958.08 467.776 960.992 480.32 957.216 491.68z"  horiz-adv-x="1024" />

    
    <glyph glyph-name="favor" unicode="&#41044;" d="M767.104-63.936000000000035c-5.344 0-10.688 1.344-15.52 4.032l-241.312 133.856-241.824-133.024c-10.72-5.92-23.904-5.152-33.888 1.92-10.016 7.072-15.104 19.264-13.12 31.328l46.88 284.736-196.448 202.08c-8.256 8.512-11.168 20.928-7.456 32.192 3.68 11.296 13.312 19.616 25.024 21.632l155.072 26.592c17.632 2.944 33.984-8.736 36.96-26.144 2.976-17.408-8.704-33.952-26.144-36.96l-95.168-16.32 165.344-170.08c7.072-7.296 10.272-17.504 8.64-27.488l-38.816-235.68 199.616 109.824c9.632 5.312 21.344 5.312 30.944-0.064l199.168-110.464-38.016 235.776c-1.632 10.016 1.632 20.224 8.704 27.456l164.672 168.256-225.664 34.816c-10.56 1.632-19.584 8.416-24.128 18.08l-99.2 212.384-100.064-211.84c-7.552-16-26.624-22.816-42.624-15.264-15.968 7.552-22.816 26.624-15.264 42.624l129.152 273.44c5.312 11.2 16.576 18.336 28.928 18.336 0 0 0.032 0 0.064 0 12.416-0.032 23.68-7.232 28.928-18.464l120.8-258.624 270.336-41.728c11.872-1.824 21.696-10.144 25.504-21.504 3.776-11.36 0.864-23.936-7.488-32.48l-196.928-201.216 45.92-284.864c1.952-12.096-3.2-24.256-13.216-31.296C780-62.01599999999996 773.568-63.936000000000035 767.104-63.936000000000035z"  horiz-adv-x="1024" />

    
    <glyph glyph-name="location" unicode="&#41079;" d="M512 288c-105.888 0-192 86.112-192 192s86.112 192 192 192 192-86.112 192-192S617.888 288 512 288zM512 608c-70.592 0-128-57.408-128-128s57.408-128 128-128c70.592 0 128 57.408 128 128S582.592 608 512 608zM512-64c-7.936 0-15.904 2.944-22.08 8.832-12.768 12.224-13.248 32.48-1.056 45.248C575.392 80.79999999999995 800 345.664 800 480c0 158.784-129.184 288-288 288-158.784 0-288-129.216-288-288 0-75.616 72.544-206.08 204.256-367.424 11.2-13.728 9.152-33.888-4.544-45.024-13.696-11.168-33.888-9.152-45.024 4.544C233.568 249.82399999999996 160 387.072 160 480 160 674.08 317.92 832 512 832s352-157.92 352-352c0-187.36-315.424-520.032-328.832-534.08C528.864-60.672000000000025 520.448-64 512-64z"  horiz-adv-x="1024" />

    
    <glyph glyph-name="search" unicode="&#40962;" d="M953.504-12.256l-152.608 163.296c61.856 74.496 95.872 167.36 95.872 265.12 0 229.344-186.624 415.968-416.032 415.968-229.344 0-415.968-186.592-415.968-415.968s186.624-415.968 416-415.968c60.096 0.032 118.048 12.576 172.224 37.248 16.096 7.328 23.2 26.304 15.872 42.368-7.328 16.128-26.4 23.264-42.368 15.872-45.856-20.864-94.88-31.456-145.76-31.488-194.080 0-351.968 157.888-351.968 351.968 0 194.048 157.888 351.968 351.968 351.968 194.112 0 352.032-157.888 352.032-351.968 0-91.36-34.848-177.92-98.080-243.744-12.256-12.736-11.84-32.992 0.864-45.248 0.96-0.928 2.208-1.28 3.296-2.080 0.864-1.28 1.312-2.752 2.4-3.904l165.504-177.088c6.272-6.752 14.816-10.144 23.36-10.144 7.84 0 15.68 2.848 21.856 8.64 12.896 12 13.6 32.256 1.536 45.152z"  horiz-adv-x="1024" />

    
    <glyph glyph-name="time" unicode="&#40963;" d="M512 832C264.96 832 64 631.04 64 384s200.96-448 448-448 448 200.96 448 448S759.04 832 512 832zM512 0.288c-211.584 0-383.712 172.16-383.712 383.712C128.288 595.584 300.416 767.712 512 767.712c211.552 0 383.712-172.128 383.712-383.712C895.712 172.448 723.552 0.288 512 0.288zM671.968 384 512 384 512 607.936c0 17.76-14.24 32.128-32 32.128s-32-14.4-32-32.128L448 352c0-17.76 14.272-32 32-32l191.968 0c17.76 0 32.128 14.24 32.128 32S689.728 384 671.968 384z"  horiz-adv-x="1024" />

    
    <glyph glyph-name="delete" unicode="&#41028;" d="M608 128c-17.696 0-32 14.304-32 32L576 512c0 17.696 14.304 32 32 32s32-14.304 32-32l0-352C640 142.30399999999997 625.696 128 608 128zM416 128c-17.696 0-32 14.304-32 32L384 512c0 17.696 14.304 32 32 32s32-14.304 32-32l0-352C448 142.30399999999997 433.696 128 416 128zM928 672l-160 0L768 736c0 52.928-42.72 96-95.264 96L352 832C299.072 832 256 788.928 256 736l0-64L96 672C78.304 672 64 657.696 64 640s14.304-32 32-32l832 0c17.696 0 32 14.304 32 32S945.696 672 928 672zM320 736c0 17.632 14.368 32 32 32l320.736 0C690.272 768 704 753.952 704 736l0-64L320 672 320 736zM736.128-64L288.064-64c-52.928 0-96 43.072-96 96L192.064 512.48c0 17.664 14.336 32 32 32s32-14.336 32-32L256.064 32c0-17.664 14.368-32 32-32l448.064 0c17.664 0 32 14.336 32 32L768.128 511.168c0 17.664 14.304 32 32 32s32-14.336 32-32L832.128 32C832.128-20.927999999999997 789.056-64 736.128-64z"  horiz-adv-x="1024" />

    
    <glyph glyph-name="home" unicode="&#41040;" d="M96 416c-9.6 0-19.2 3.2-25.6 12.8-12.8 12.8-9.6 35.2 3.2 44.8l377.6 310.4c35.2 25.6 86.4 25.6 118.4 0l377.6-307.2c12.8-9.6 16-32 3.2-44.8s-32-16-44.8-3.2l-374.4 300.8c-9.6 6.4-28.8 6.4-38.4 0l-377.6-307.2c-6.4-6.4-12.8-6.4-19.2-6.4zM816-32h-208c-19.2 0-32 12.8-32 32v150.4c0 22.4-38.4 44.8-67.2 44.8s-64-19.2-64-44.8v-150.4c0-19.2-12.8-32-32-32h-201.6c-48 0-83.2 35.2-83.2 80v304c0 19.2 12.8 32 32 32s32-12.8 32-32v-304c0-9.6 6.4-16 19.2-16h172.8v118.4c0 64 67.2 108.8 128 108.8s131.2-44.8 131.2-108.8v-118.4h176c9.6 0 16 0 16 19.2v300.8c0 19.2 12.8 32 32 32s32-12.8 32-32v-304c-3.2-48-35.2-80-83.2-80z"  horiz-adv-x="1024" />

    
    <glyph glyph-name="lock" unicode="&#40964;" d="M512 128c-17.664 0-32 14.304-32 32v96c0 17.696 14.336 32 32 32s32-14.304 32-32v-96c0-17.696-14.336-32-32-32zM832-64h-640c-52.928 0-96 43.072-96 96v352c0 52.928 43.072 96 96 96h640c52.928 0 96-43.072 96-96v-352c0-52.928-43.072-96-96-96zM192 416c-17.632 0-32-14.368-32-32v-352c0-17.664 14.368-32 32-32h640c17.664 0 32 14.336 32 32v352c0 17.632-14.336 32-32 32h-640zM736 416c-17.696 0-32 14.336-32 32v129.984c0 108.768-102.24 190.016-193.664 190.016-93.568 0-190.336-70.912-190.336-189.568v-130.432c0-17.664-14.336-32-32-32s-32 14.336-32 32v130.432c0 158.72 129.312 253.568 254.336 253.568 121.888 0 257.664-104.32 257.664-254.016v-129.984c0-17.664-14.304-32-32-32z"  horiz-adv-x="1024" />

    
    <glyph glyph-name="thumbup" unicode="&#41056;" d="M873.6 480h-188.8c12.8 44.8 28.8 115.2 19.2 188.8-6.4 60.8-41.6 105.6-92.8 124.8-38.4 12.8-76.8 6.4-99.2-16-25.6-25.6-38.4-76.8-51.2-128-9.6-35.2-16-70.4-28.8-89.6-32-54.4-102.4-76.8-115.2-80H224c-19.2 0-32-12.8-32-32v-448c0-19.2 12.8-32 32-32h547.2C896-32 960 358.4 960 380.79999999999995c0 57.6-44.8 99.2-86.4 99.2zM96 480c-19.2 0-32-12.8-32-32v-448c0-19.2 12.8-32 32-32s32 12.8 32 32V448c0 19.2-12.8 32-32 32z"  horiz-adv-x="1024" />

    
    <glyph glyph-name="keyboardarrowdown" unicode="&#41062;" d="M316.373333 545.7066669999999l195.626667-195.626667 195.626667 195.626667 60.373333-60.373333-256-256-256 256z"  horiz-adv-x="1024" />

    
    <glyph glyph-name="book" unicode="&#41073;" d="M767.989255 810.6705890000001L256.010745 810.6705890000001c-47.14474 0-85.329411-38.184671-85.329411-85.329411L170.681334 42.70282299999997c0-47.14474 38.184671-85.329411 85.329411-85.329411l511.978511 0c47.14474 0 85.329411 38.184671 85.329411 85.329411L853.318666 725.340155C853.318666 772.484895 815.133995 810.6705890000001 767.989255 810.6705890000001zM256.010745 725.340155l213.32455 0 0-341.318666-106.662275 63.99757-106.662275-63.99757L256.010745 725.340155z"  horiz-adv-x="1024" />

    
    <glyph glyph-name="arrowforward" unicode="&#41026;" d="M512.021489 725.332992l-60.373019-60.373019 238.293221-238.293221L170.687474 426.666752l0-85.333504 519.253194 0L451.647447 103.04002700000001l60.373019-60.373019 341.332992 341.332992L512.021489 725.332992z"  horiz-adv-x="1024" />

    
    <glyph glyph-name="chevronleft" unicode="&#40967;" d="M657.7 579.64l-60.371 60.371-255.989-255.989 255.989-255.989 60.371 60.371-195.618 195.618 195.618 195.618z"  horiz-adv-x="1024" />

    
    <glyph glyph-name="chevronright" unicode="&#40968;" d="M426.67 640.011l-60.371-60.371 195.618-195.618-195.617-195.618 60.371-60.371 255.989 255.989-255.99 255.989z"  horiz-adv-x="1024" />

    
    <glyph glyph-name="starhalf" unicode="&#41094;" d="M938.6491 480.444563l-306.760592 26.452465L512 789.337725 392.111492 506.469286 85.3509 480.444563l232.95054-201.805192L248.330832-21.294746000000032l263.669168 159.140487L775.669168-21.294746000000032l-69.543889 299.934117L938.6491 480.444563zM512 217.628832L512 614.411717l72.956615-172.365696 186.872085-16.21224L630.181633 302.95824200000004l42.664705-182.605921L512 217.628832z"  horiz-adv-x="1024" />

    
    <glyph glyph-name="staroutline" unicode="&#41095;" d="M938.687986 501.760031l-306.772872 26.453489L512.021489 810.666496 392.127865 527.786801 85.354993 501.760031l232.959749-201.813379-69.973678-299.946396 263.680425 159.146627L775.700891 0.00025600000003578316l-69.546959 299.946396L938.687986 501.760031zM512.021489 238.93406700000003l-160.426783-96.852862 42.666752 182.613084L252.608252 447.573921l186.880271 16.213263 72.532967 171.946141 72.959685-172.372859 186.880271-16.213263L630.208239 324.26654699999995l42.666752-182.613084L512.021489 238.93406700000003z"  horiz-adv-x="1024" />

    
    <glyph glyph-name="star" unicode="&#41096;" d="M512 159.17758200000003l263.669168-159.140487-69.970608 299.934117 232.95054 201.805192-306.760592 26.025747L512 810.6705890000001 392.111492 527.80215 85.3509 501.776404l232.95054-201.805192-69.970608-299.934117L512 159.17758200000003z"  horiz-adv-x="1024" />

    
    <glyph glyph-name="whatshot" unicode="&#41042;" d="M575.99757 867.414965c0 0 31.572066-113.062032 31.572066-204.7912 0-87.889723-57.597813-159.353334-145.700383-159.353334s-154.660452 71.250764-154.660452 159.353334l1.066285 15.359826c-85.756129-102.608959-137.593751-234.870262-137.593751-379.290489 0-188.578959 152.74073-341.318666 341.318666-341.318666S853.318666 110.11311899999998 853.318666 298.69207900000004C853.318666 528.868435 742.603075 734.086353 575.99757 867.414965zM499.627205 85.36752899999999c-75.943646 0-137.593751 59.944254-137.593751 133.968178 0 69.330018 44.584428 117.968785 120.101355 133.11474 75.516928 15.145955 153.593144 51.410903 196.898439 109.862153 16.638959-55.037501 25.385157-113.062032 25.385157-172.152848C704.418404 177.310567 612.689237 85.36752899999999 499.627205 85.36752899999999z"  horiz-adv-x="1024" />

    
    <glyph glyph-name="removeredeye" unicode="&#41045;" d="M992 383.904c0 5.76-0.992 10.592-1.28 11.136-0.192 2.88-1.152 8.064-2.08 10.816-0.256 0.672-0.544 1.376-0.832 2.08-0.48 1.568-1.024 3.104-1.6 4.32C897.664 605.8879999999999 707.104 736 512 736 316.928 736 126.368 605.9839999999999 38.24 413.408c-1.056-2.112-1.792-4.096-2.272-5.856-0.224-0.544-0.448-1.088-0.64-1.6-1.76-5.088-1.792-8.64-1.632-7.744-0.832-3.744-1.568-11.168-1.568-11.168-0.224-2.272-0.224-4.032 0.032-6.304 0 0 0.736-6.464 1.088-7.808 0.128-1.824 0.576-4.512 1.12-6.976l-0.032 0c0.448-2.08 1.12-4.096 1.984-6.08 0.48-1.536 0.992-2.976 1.472-4.032C126.432 162.144 316.992 32 512 32c195.136 0 385.696 130.048 473.216 321.696 1.376 2.496 2.24 4.832 2.848 6.912 0.256 0.608 0.48 1.184 0.672 1.728 1.536 4.48 1.856 8.32 1.728 8.32 0 0 0 0-0.032-0.032C991.04 373.72799999999995 992 378.36800000000005 992 383.904zM927.328 381.53599999999994c-0.032-0.16-0.096-0.32-0.128-0.48-0.128-0.416-0.288-0.864-0.416-1.376C848.032 209.91999999999996 681.696 96 512 96c-169.28 0-335.328 113.568-414.88 283.968-0.16 0.576-0.32 1.152-0.512 1.696-0.064 0.544-0.16 1.024-0.192 1.344-0.064 0.352-0.128 0.8-0.192 1.248l0.032 0.416c0.16 0.704 0.288 1.44 0.384 2.208 0.128 0.416 0.256 0.832 0.384 1.28C175.84 558.0160000000001 342.304 672 512 672c169.76 0 336.192-114.08 414.752-283.68 0.096-0.32 0.16-0.608 0.256-0.832 0.064-0.288 0.16-0.576 0.256-0.864 0.16-1.28 0.32-2.528 0.48-3.168C927.552 382.81600000000003 927.456 382.17600000000004 927.328 381.53599999999994zM512 544c-88.224 0-160-71.776-160-160s71.776-160 160-160 160 71.776 160 160S600.224 544 512 544zM512 288c-52.928 0-96 43.072-96 96s43.072 96 96 96 96-43.072 96-96S564.928 288 512 288z"  horiz-adv-x="1024" />

    
    <glyph glyph-name="icattachfileblack24px" unicode="&#41046;" d="M704 640l0-490.666667c0-94.293333-76.373333-170.666667-170.666667-170.666667s-170.666667 76.373333-170.666667 170.666667L362.666667 682.666667c0 58.88 47.786667 106.666667 106.666667 106.666667s106.666667-47.786667 106.666667-106.666667l0-448c0-23.466667-19.2-42.666667-42.666667-42.666667s-42.666667 19.2-42.666667 42.666667L490.666667 640 426.666667 640l0-405.333333c0-58.88 47.786667-106.666667 106.666667-106.666667s106.666667 47.786667 106.666667 106.666667L640 682.666667c0 94.293333-76.373333 170.666667-170.666667 170.666667S298.666667 776.96 298.666667 682.666667l0-533.333333c0-129.706667 104.96-234.666667 234.666667-234.666667s234.666667 104.96 234.666667 234.666667L768 640 704 640z"  horiz-adv-x="1024" />

    
    <glyph glyph-name="zuoye" unicode="&#41047;" d="M918.4 581.344l-246.816 241.984C665.504 829.248 657.568 832 648.832 832.448c-8.512-0.096-16.64-3.552-22.56-9.632l-459.2-470.4c-4.416-4.512-7.392-10.272-8.576-16.448L96.544 5.312000000000012c-1.984-10.592 1.472-21.44 9.216-28.896C111.808-29.440000000000055 119.808-32.60799999999995 128-32.60799999999995c2.304 0 4.672 0.256 6.976 0.768l292.448 65.216c6.112 1.344 11.712 4.512 16.064 9.024l475.584 493.856C931.232 548.928 930.944 569.056 918.4 581.344zM428.352 92.89599999999996c-6.304-6.688-14.784-10.048-23.296-10.048-7.872 0-15.744 2.88-21.952 8.672l-182.112 171.392c-12.864 12.128-13.472 32.384-1.344 45.248s32.352 13.472 45.248 1.376l182.112-171.392C439.872 126.01599999999996 440.48 105.79200000000003 428.352 92.89599999999996z"  horiz-adv-x="1024" />

    
    <glyph glyph-name="calendarok" unicode="&#41078;" d="M737 637.125c23.302 0 42.188 18.886 42.188 42.188v112.5c0 23.302-18.886 42.188-42.188 42.188s-42.188-18.886-42.188-42.188v-112.5c0-23.302 18.886-42.188 42.188-42.188zM919.813 721.5h-84.375v-42.188c0-54.366-44.072-98.438-98.438-98.438s-98.438 44.072-98.438 98.438v42.188h-253.125v-42.188c0-54.366-44.072-98.438-98.438-98.438s-98.438 44.072-98.438 98.438v42.188h-84.375c-23.302 0-42.188-18.886-42.188-42.188v-703.125c0-23.302 18.886-42.188 42.188-42.188h815.625c23.302 0 42.188 18.886 42.188 42.188v703.125c0 23.302-18.886 42.188-42.188 42.188zM877.625 18.375h-731.25v478.125h731.25v-478.125zM287 637.125c23.302 0 42.188 18.886 42.188 42.188v112.5c0 23.302-18.886 42.188-42.188 42.188s-42.188-18.886-42.188-42.188v-112.5c0-23.302 18.886-42.188 42.188-42.188zM439.986 129.173c7.636-7.636 18.183-12.361 29.827-12.361s22.191 4.725 29.827 12.361l196.875 196.875c7.636 7.622 12.361 18.183 12.361 29.827 0 23.302-18.886 42.188-42.188 42.188-11.644 0-22.191-4.725-29.827-12.361l-167.048-167.034-68.611 68.611c-7.636 7.622-18.183 12.347-29.827 12.347-23.302 0-42.188-18.886-42.188-42.188 0-11.644 4.725-22.191 12.361-29.827l98.438-98.438z"  horiz-adv-x="1024" />

    
    <glyph glyph-name="my" unicode="&#40965;" d="M160.032-32c-10.624 0-21.024 5.28-27.104 14.944-9.44 14.944-4.928 34.688 9.984 44.128 5.536 3.488 136.608 85.472 240.608 90.656l0.48-0v18.016c-120.352 49.92-199.648 175.616-199.648 320.448 0 189.6 145.92 343.808 325.312 343.808 179.392 0 325.376-154.208 325.376-343.808 0-144.704-75.808-267.136-195.040-318.464v-20.352c104.8-9.408 234.88-86.624 240.448-89.952 15.168-9.088 20.096-28.704 11.040-43.872-9.088-15.2-28.768-20.096-43.872-11.072-1.28 0.736-126.24 74.88-214.24 81.312l-25.376-0.032c-17.696 0-32 14.304-32 32v73.92c0 13.664 8.672 25.824 21.6 30.24 105.376 36.256 173.44 140.736 173.44 266.304 0 154.272-117.248 279.776-261.376 279.776-144.096 0-261.312-125.504-261.312-279.808 0-125.696 71.328-233.312 177.536-267.744 13.184-4.256 22.112-16.544 22.112-30.432v-72.288c0-17.696-14.336-32-32-32h-30.88c-85.824-4.32-206.848-80.064-208.032-80.8-5.312-3.328-11.232-4.928-17.056-4.928z"  horiz-adv-x="1024" />

    
    <glyph glyph-name="certificate" unicode="&#41008;" d="M195.771 164.16099999999994h859.13v-23.668h-859.13v23.668zM711.161 377.558h343.738v-23.675h-343.738v23.675zM711.161 600.566h343.738v-23.674h-343.738v23.674zM124.58-66c-34.507 0-62.58 28.093-62.58 62.626v774.761c0 34.526 28.073 62.613 62.58 62.613h1020.807c34.524 0 62.613-28.087 62.613-62.613v-774.761c0-34.532-28.087-62.626-62.613-62.626h-1020.809zM124.58 810.326c-21.452 0-38.905-17.468-38.905-38.938v-774.761c0-21.477 17.453-38.951 38.905-38.951h1020.807c21.472 0 38.938 17.472 38.938 38.951v774.761c0 21.47-17.467 38.938-38.938 38.938h-1020.809zM539.922 289.76099999999997c-5.983 83.372-75.747 148.45-159.505 148.45-83.757 0-153.521-65.077-159.505-148.45h-23.718c1.861 29.174 10.864 57.878 26.09 83.122 17.261 28.62 41.865 51.993 71.152 67.59l22.96 12.228-19.303 17.44c-26.033 23.517-40.371 55.808-40.371 90.923 0 67.654 55.042 122.695 122.695 122.695 67.665 0 122.716-55.042 122.716-122.695 0-35.113-14.34-67.403-40.381-90.923l-19.307-17.437 22.962-12.231c29.286-15.597 53.888-38.97 71.147-67.59 15.223-25.247 24.227-53.951 26.089-83.122h-23.719zM380.417 660.085c-54.605 0-99.027-44.425-99.027-99.029 0-54.611 44.423-99.041 99.027-99.041 54.611 0 99.041 44.43 99.041 99.041 0 54.605-44.43 99.029-99.041 99.029z"  horiz-adv-x="1304" />

    
    <glyph glyph-name="pindao" unicode="&#42510;" d="M427.2 811.2c0 46.4-38.4 84.8-84.8 84.8l-256 0C38.4 896 0 857.6 0 811.2l0-256c0-46.4 38.4-84.8 84.8-84.8l256 0c46.4 0 84.8 38.4 84.8 84.8L425.6 811.2zM340.8 596.8c0-24-19.2-43.2-43.2-43.2L128 553.6c-24 0-43.2 19.2-43.2 43.2L84.8 768c0 24 19.2 43.2 43.2 43.2l171.2 0c24 0 43.2-19.2 43.2-43.2L342.4 596.8zM256 384L84.8 384C38.4 384 0 345.6 0 299.20000000000005l0-340.8C0-89.60000000000002 38.4-128 84.8-128L256-128c46.4 0 84.8 38.4 84.8 84.8L340.8 299.20000000000005C340.8 345.6 302.4 384 256 384zM939.2 896L596.8 896C550.4 896 512 857.6 512 811.2L512 640c0-46.4 38.4-84.8 84.8-84.8l340.8 0c46.4 0 84.8 38.4 84.8 84.8L1022.4 811.2C1024 857.6 985.6 896 939.2 896zM939.2 468.8L512 468.8c-46.4 0-84.8-38.4-84.8-84.8l0-427.2c0-46.4 38.4-84.8 84.8-84.8l427.2 0c46.4 0 84.8 38.4 84.8 84.8L1024 384C1024 430.4 985.6 468.8 939.2 468.8z"  horiz-adv-x="1024" />

    
    <glyph glyph-name="post" unicode="&#41025;" d="M316.044-7.572999999999979H188.745c-7.554 0-14.008 6.45-14.008 14.003V762.648c0 7.546 6.347 14.01 14.008 14.01h644.212c7.554 0 14.007-6.35 14.007-14.01v-407.756l56.018-24.161V762.648c0 38.513-31.506 70.02-70.025 70.02H188.745c-38.52 0-70.022-31.455-70.022-70.02v-756.22c0-38.453 31.502-70.02 70.022-70.02h127.297v56.019h0.002z m454.708 437.472c0 73.1-59.273 132.325-132.33 132.325-73.099 0-132.327-59.226-132.327-132.325 0-73.1 59.229-132.32 132.328-132.32 73.056 0 132.329 59.222 132.329 132.32z m44.108-176.428h-24.383L653.24-25.083999999999946l51.347 256.497-66.164 66.166-66.164-66.166 51.26-256.497-137.24 278.555H461.9c-88.152 0-88.152-59.274-88.152-132.327v-184.736h529.331V121.14499999999998c0.002 73.052 0.002 132.326-88.219 132.326zM263.24 686.285h492.242v-51.91H263.24v51.91z m0-132.453h170.05v-55.489H263.24v55.489z m0-142.295h189.736v-51.91H263.24v51.91z m0 0"  horiz-adv-x="1024" />

    
    <glyph glyph-name="goal" unicode="&#41009;" d="M501.301776 432.344245c-0.886268-0.835333-1.731788-1.706321-2.546748-2.612962l-0.707995-0.72837 0.025467-0.025468a41.868529 41.868529 0 0 1-10.080026-27.270572 42.062082 42.062082 0 0 1 42.062081-42.062081 41.858342 41.858342 0 0 1 28.788434 11.45527l0.106963-0.106964 169.684692 168.233046 108.766492-7.248043L1018.698996 717.615619l-156.624971 15.95792L846.116106 896l-188.540811-181.28258L666.280078 601.59599 501.301776 432.344245zM443.454953 459.528228l70.68243 80.095209c-152.346435 14.129355-205.746636-86.380581-205.746636-86.380582-87.949378-149.208842 28.268897-251.297762 28.268897-251.297761 155.489121-105.226513 263.85832-9.417872 263.858321-9.417873 103.657716 73.814929 62.823167 209.174558 62.823167 209.174559l-75.388819-78.826929c-7.854169-28.268897-28.279084-53.390014-28.279085-53.390014-65.96076-78.531506-153.910138-20.424915-153.910137-20.424915-62.823167 37.691863-50.257515 121.928083-50.257515 121.928083 18.851025 81.103721 87.949378 88.540223 87.949377 88.540223zM854.953319 435.970814c39.270846-251.287575-96.572665-362.804554-96.572664-362.804554-135.843511-152.351528-340.051912-114.659665-340.051912-114.659666-152.341341 25.131304-224.592568 111.522073-224.592568 111.522073-103.657716 87.954471-114.649479 248.144888-114.649478 248.144888C69.898032 436.541285 130.918101 540.9834000000001 130.918101 540.9834000000001c51.041913 94.153255 144.573762 149.412582 144.573762 149.412582 133.581999 75.388819 288.908129 39.265753 288.908129 39.265752l61.244183 59.680481h-0.01528 0.01528c-109.937996 45.551126-257.572948 17.277135-257.572947 17.277135-175.903849-28.268897-277.987676-180.615332-277.987676-180.615332C-38.700375 443.814796 8.414454 258.49816799999996 8.414454 258.49816799999996c47.114829-224.592568 230.87794-325.112691 230.87794-325.112691 238.727016-130.357817 439.757076-12.565652 439.757076-12.565652 202.60395 102.08892 249.718778 298.41259 249.718779 298.41259 42.403346 144.492266-10.991762 279.556472-10.991763 279.556472l-62.823167-62.818073z"  horiz-adv-x="1024" />

    
    <glyph glyph-name="group_fill" unicode="&#41027;" d="M620.8 284.79999999999995c67.2 38.4 115.2 112 115.2 195.2 0 124.8-99.2 224-224 224s-224-99.2-224-224c0-83.2 44.8-156.8 115.2-195.2-89.6-35.2-156.8-115.2-179.2-211.2-3.2-9.6 0-19.2 6.4-25.6 6.4-6.4 16-12.8 25.6-12.8h512c9.6 0 19.2 3.2 25.6 12.8 6.4 6.4 6.4 16 6.4 25.6-22.4 96-89.6 176-179.2 211.2zM992 265.6c-12.8 64-54.4 115.2-118.4 144 35.2 32 54.4 76.8 54.4 128C928 630.4 857.6 704 768 704c-19.2 0-32-12.8-32-32s12.8-32 32-32c54.4 0 96-44.8 96-102.4 0-51.2-28.8-89.6-73.6-99.2-16-3.2-28.8-22.4-22.4-38.4 0-16 9.6-28.8 25.6-28.8 70.4-12.8 118.4-54.4 131.2-115.2 3.2-16 16-25.6 32-25.6h6.4c19.2 0 32 16 28.8 35.2zM252.8 396.8c6.4 19.2-6.4 35.2-22.4 41.6C188.8 448 160 486.4 160 537.6 163.2 595.2 201.6 640 256 640c19.2 0 32 12.8 32 32s-16 32-32 32c-89.6 0-156.8-70.4-156.8-166.4 0-51.2 19.2-96 51.2-128-60.8-28.8-105.6-80-118.4-144-3.2-16 6.4-35.2 25.6-38.4H64c16 0 28.8 9.6 32 25.6 12.8 60.8 60.8 102.4 131.2 115.2 16 0 25.6 12.8 25.6 28.8z"  horiz-adv-x="1024" />

    
    <glyph glyph-name="integral" unicode="&#40969;" d="M512.64 835.901c-249.495 0-451.746-202.256-451.746-451.746s202.251-451.746 451.746-451.746c249.489 0 451.747 202.256 451.747 451.746s-202.256 451.746-451.747 451.746zM226.026 177.94299999999998c-2.185-1.468-4.875-2.344-7.77-2.344-0.002 0-0.004 0-0.006 0-4.577 0-9.071 2.219-11.787 6.328-39.821 60.176-60.866 130.099-60.866 202.228 0 33.019 4.721 66.539 14.041 99.626 2.116 7.507 9.933 11.898 17.412 9.759 7.506-2.108 11.876-9.904 9.759-17.411-8.609-30.598-12.979-61.541-12.979-91.974 0-66.575 19.425-131.107 56.179-186.652 4.302-6.493 2.516-15.261-3.983-19.561zM812.642 173.08900000000006c-68.848-97.661-180.999-155.977-300.002-155.977-64.326 0-127.929 17.206-183.928 49.741-6.741 3.915-9.03 12.545-5.115 19.3 3.922 6.728 12.56 9.016 19.3 5.1 51.697-30.024 110.393-45.908 169.742-45.908 109.835 0 213.356 53.835 276.923 144.011 4.481 6.369 13.276 7.912 19.659 3.405 6.37-4.494 7.914-13.303 3.42-19.673zM541.827 339.53l-80.691 20.968c-24.74 6.081-42.917 16.338-54.538 30.786-11.621 14.434-17.434 33.653-17.434 57.681 0 30.701 10.802 55.778 32.411 75.232 18.578 16.73 44.316 26.222 77.114 28.566-0.021 0.276-0.165 0.518-0.165 0.8v28.233c0 7.803 6.32 14.118 14.117 14.118h28.235c7.789 0 14.117-6.314 14.117-14.118v-28.234c0-1.448-0.428-2.772-0.827-4.096 20.046-4.369 37.167-12.407 51.368-24.126 22.65-18.694 35.168-45.825 37.552-81.394h-66.159c-4.922 34.341-26.827 51.518-65.719 51.518-17.736 0-31.894-3.487-42.469-10.478-10.436-7.003-15.647-16.57-15.647-28.731 0-8.823 2.681-16.185 8.044-22.113 5.515-5.928 14.311-10.422 26.38-13.455l80.009-20.06c32.947-8.064 55.516-19.384 67.744-33.969 12.352-14.6 18.544-33.679 18.544-57.225 0-32.384-11.319-58.674-33.983-78.886-16.338-14.586-38.147-23.795-65.264-27.765 0.111-0.744 0.428-1.392 0.428-2.151v-28.234c0-7.804-6.328-14.119-14.117-14.119h-28.235c-7.796 0-14.117 6.315-14.117 14.119v28.234c0 0.385 0.186 0.689 0.214 1.075-29.758 3.033-54.863 12.132-75.157 27.461-25.331 19.3-37.994 47.423-37.994 84.358h66.159c1.938-36.782 25.483-55.174 70.641-55.174 43.508 0 65.263 14.214 65.263 42.641 0.001 18.091-15.274 30.926-45.824 38.536zM859.335 304.98199999999997c-0.855 0-1.724 0.069-2.605 0.234-7.665 1.434-12.713 8.81-11.278 16.475 4.026 21.644 5.997 42.075 5.997 62.465 0 186.817-151.993 338.809-338.809 338.809-98.908 0-192.69-43.282-257.291-118.74-5.074-5.921-13.98-6.61-19.908-1.544-5.921 5.074-6.609 13.986-1.543 19.907 69.977 81.732 171.574 128.613 278.742 128.613 202.395 0 367.043-164.655 367.043-367.043 0-21.837-2.192-44.599-6.493-67.65-1.268-6.796-7.196-11.524-13.855-11.524z"  horiz-adv-x="1024" />

    
    <glyph glyph-name="chatcircle" unicode="&#40978;" d="M512 839.111c-251.335 0-455.111-203.776-455.111-455.111s203.776-455.111 455.111-455.111 455.111 203.776 455.111 455.111-203.776 455.111-455.111 455.111zM411.875 391.965c-15.019 0-27.307 12.288-27.307 27.307s12.288 27.307 27.307 27.307 27.307-12.288 27.307-27.307-12.288-27.307-27.307-27.307zM748.658 264.533c0-30.151-24.462-54.613-54.613-54.613h-119.922l-49.266-49.266c-3.527-3.527-8.192-5.347-12.857-5.347s-9.33 1.821-12.857 5.347l-54.613 54.613c-7.168 7.168-7.168 18.659 0 25.714 7.168 7.168 18.659 7.168 25.714 0l41.757-41.757 41.757 41.757c3.413 3.413 8.078 5.347 12.857 5.347h127.431c10.013 0 18.205 8.192 18.205 18.205v291.271c0 10.013-8.192 18.205-18.205 18.205h-364.089c-10.013 0-18.205-8.192-18.205-18.205v-291.271c0-10.013 8.192-18.205 18.205-18.205h54.613c10.013 0 18.205-8.192 18.205-18.205s-8.192-18.205-18.205-18.205h-54.613c-30.151 0-54.613 24.462-54.613 54.613v291.271c0 30.151 24.462 54.613 54.613 54.613h364.089c30.151 0 54.613-24.462 54.613-54.613v-291.271zM493.795 419.271c0 15.019 12.288 27.307 27.307 27.307s27.307-12.288 27.307-27.307-12.288-27.307-27.307-27.307-27.307 12.174-27.307 27.307zM603.022 419.271c0 15.019 12.288 27.307 27.307 27.307s27.307-12.288 27.307-27.307-12.288-27.307-27.307-27.307-27.307 12.174-27.307 27.307z"  horiz-adv-x="1024" />

    
    <glyph glyph-name="login" unicode="&#40981;" d="M512 839.111c-251.335 0-455.111-203.776-455.111-455.111s203.776-455.111 455.111-455.111 455.111 203.776 455.111 455.111-203.776 455.111-455.111 455.111zM719.531 164.97799999999995c-5.006-8.306-15.701-11.037-24.007-6.03-0.683 0.455-69.063 40.96-117.191 44.487h-13.881c-9.671 0-17.522 7.851-17.522 17.522v40.391c0 7.509 4.779 14.109 11.833 16.498 57.685 19.797 94.891 77.027 94.891 145.635 0 84.423-64.171 153.031-143.019 153.031-78.848 0-142.905-68.608-142.905-153.031 0-68.722 39.026-127.659 97.053-146.432 7.168-2.275 12.061-9.102 12.061-16.611v-39.595c0-9.671-7.851-17.522-17.522-17.522h-16.725c-46.99-2.389-113.095-43.805-113.778-44.146-2.958-1.821-6.144-2.731-9.33-2.731-5.803 0-11.491 2.845-14.791 8.192-5.12 8.192-2.731 19.001 5.461 24.121 3.072 1.934 74.752 46.763 131.641 49.607h0.227v9.899c-65.877 27.307-109.227 96.029-109.227 175.331 0 103.651 79.872 188.075 177.949 188.075s177.949-84.309 177.949-188.075c0-79.189-41.415-146.091-106.723-174.194v-11.15c57.344-5.12 128.455-47.331 131.527-49.152 8.306-5.12 11.037-15.815 6.03-24.121z"  horiz-adv-x="1024" />

    
    <glyph glyph-name="minus" unicode="&#40983;" d="M512 839.111c-251.335 0-455.111-203.776-455.111-455.111s203.776-455.111 455.111-455.111 455.111 203.776 455.111 455.111-203.776 455.111-455.111 455.111zM716.8 361.245h-409.6c-12.515 0-22.755 10.24-22.755 22.755s10.24 22.755 22.755 22.755h409.6c12.629 0 22.755-10.24 22.755-22.755s-10.126-22.755-22.755-22.755z"  horiz-adv-x="1024" />

    
    <glyph glyph-name="help" unicode="&#40979;" d="M512 839.111c-251.335 0-455.111-203.776-455.111-455.111s203.776-455.111 455.111-455.111 455.111 203.776 455.111 455.111-203.776 455.111-455.111 455.111zM543.403 156.445h-62.578v62.578h62.578v-62.578zM642.617 435.427c-9.216-16.498-27.079-36.523-53.703-60.075-17.863-15.929-29.582-27.648-35.043-35.157-5.461-7.509-9.557-16.157-12.288-25.941-2.617-9.785-4.21-25.6-4.551-47.559h-52.793c-0.227 7.395-0.341 12.857-0.341 16.498 0 21.618 3.072 40.163 9.216 55.865 4.437 11.833 11.719 23.666 21.618 35.726 7.282 8.761 20.48 21.618 39.481 38.343 19.001 16.725 31.403 30.151 37.091 40.163s8.533 20.821 8.533 32.654c0 21.39-8.306 40.163-25.031 56.32-16.725 16.157-37.091 24.235-61.326 24.235-23.438 0-42.894-7.395-58.595-21.959-15.701-14.677-25.941-37.547-30.834-68.608l-56.434 6.713c5.12 41.757 20.253 73.614 45.283 95.801 25.145 22.187 58.368 33.337 99.669 33.337 43.805 0 78.621-11.947 104.675-35.726s39.026-52.565 39.026-86.357c0.114-19.797-4.437-37.774-13.653-54.272z"  horiz-adv-x="1024" />

    
    <glyph glyph-name="gift" unicode="&#40984;" d="M338.375 229.60299999999995c0-8.647 6.371-18.887 14.45-18.887h318.35c7.737 0 14.45 9.443 14.45 18.887v154.738h-347.25v-154.738zM383.317 509.042c30.265-11.378 39.936-12.515 52.338-13.426 1.024-0.114 1.934-0.569 2.845-0.569h62.35c-17.635 15.815-32.995 29.923-36.181 32.199-22.187 15.246-74.297 45.625-105.927 20.821-2.958-4.437-3.641-8.533-2.162-13.198 3.755-12.288 19.57-23.552 26.738-25.827zM322.56 415.403s1.479 0.569 1.934 0.569h376.946v47.331h-378.88v-47.901zM512 839.111c-251.335 0-455.111-203.776-455.111-455.111s203.776-455.111 455.111-455.111 455.111 203.776 455.111 455.111-203.776 455.111-455.111 455.111zM732.957 399.815c0-8.761 0-15.815-15.815-15.815v-154.397c0-27.079-20.707-50.403-46.08-50.403h-318.237c-25.031 0-46.08 22.869-46.08 50.403v154.397c-15.815 0-15.815 7.054-15.815 15.815v78.962c0 8.761 7.737 16.157 16.498 16.157h40.277c-9.102 0-17.522 18.432-21.277 30.606-4.665 15.019-1.821 29.696 8.192 42.781 0.683 0.91 1.479 1.707 2.275 2.503 33.792 28.899 86.471 22.755 144.498-17.067 7.623-5.12 46.194-40.733 62.464-55.979 1.024-0.91 1.593-2.958 2.275-2.958h43.577c0.91 0 1.821 0.569 2.845 0.569 12.402 0.91 22.073 2.048 51.769 13.198 7.623 2.503 23.438 13.767 27.193 25.941 1.365 4.665 0.797 8.875-2.162 13.198-31.744 25.031-83.058-8.875-98.077-19.911-0.114-0.114-1.365-0.91-1.479-1.024-7.168-4.893-17.067-3.072-21.959 4.096-4.893 7.168-3.072 16.953 3.982 21.845 26.397 19.456 91.363 58.937 139.378 17.863 0.797-0.683 1.593-1.479 2.275-2.389 10.013-13.085 12.857-27.875 8.192-42.894-3.755-12.174-12.061-30.606-21.277-30.606h37.319c8.761 0 15.133-7.509 15.133-16.157v-78.734z"  horiz-adv-x="1024" />

    
    <glyph glyph-name="bonus_points" unicode="&#40985;" d="M512 839.111c-251.335 0-455.111-203.776-455.111-455.111s203.776-455.111 455.111-455.111 455.111 203.776 455.111 455.111-203.776 455.111-455.111 455.111zM533.049 209.23699999999997v-52.793h-32.882v52.338c-38.798 3.413-77.141 20.48-101.945 40.96l21.049 26.624c24.803-19.57 55.523-35.726 93.298-35.726 46.421 0 70.087 22.414 70.087 57.117 0 90.453-169.301 69.063-169.301 173.739 0 46.649 35.613 80.441 86.813 87.154v52.907h32.882v-52.338c38.229-3.413 63.033-19.456 84.082-39.481l-23.666-23.325c-22.073 19.57-40.391 30.493-74.411 30.493-37.774 0-62.578-21.845-62.578-53.362 0-80.896 169.301-57.117 169.301-172.829 0-50.517-36.181-84.765-92.729-91.477z"  horiz-adv-x="1024" />

    
    <glyph glyph-name="question" unicode="&#41048;" d="M811.40625718 682.13936902C731.5923472 761.95327899 625.59609689 805.87204357 512.84311389 805.87204357 400.93472217 806.29433963 293.67158454 761.5309829299999 214.70226584 682.13936902c-127.95563259-127.53333738-160.4724104-322.634005-80.2362052-484.37330274l-18.15872031-137.66843682c-2.53377466-18.58101636 3.37836677-37.16203189 15.62494565-51.09779333 14.3580575-16.46953693 35.89514456-24.49315778 57.4322308-21.53708708l137.66843684 18.15872031c57.85452685-28.29381976 121.62119513-43.07417332 186.2324555-43.07417331 111.90839172-0.42229605 219.17152936 44.34106064 298.14084806 123.31037851 79.81390915 79.81390915 123.73267456 185.81015946 123.73267455 298.56314329s-44.34106064 218.32693808-123.73267455 297.71855117z m-288.00574778-533.35961746c-6.75673269-2.95607071-14.3580575-2.95607071-21.53708707 0-5.91214142 2.53377466-10.97969155 7.17902874-13.51346621 13.51346622-5.91214142 13.51346621 0.42229605 29.13841103 13.51346621 35.05055245 6.75673269 2.95607071 14.3580575 2.95607071 21.53708707 0 5.91214142-2.53377466 10.97969155-7.6013248 13.51346621-13.51346621 6.33443747-13.51346621 0-29.13841103-13.51346621-35.05055246z m127.11104049 275.33687283c-14.78035355-25.33774905-38.42891922-43.91876541-59.12141417-60.38830152-5.48984537-4.22295803-10.97969155-8.44591607-16.46953694-13.09117016-22.38167834-19.42560764-35.47284851-47.7194274-35.05055245-77.28013532 0-14.3580575-11.82428284-26.18234033-26.18234116-26.18234033-14.3580575 0-26.18234033 11.82428284-26.18234033 26.18234033 0 45.60794797 20.27019892 89.52671338 54.05386404 117.82053315 5.48984537 4.64525408 11.82428284 9.71280341 18.15872031 14.35805832 17.73642426 13.93576226 36.31744061 28.29381976 46.03024402 44.76335668 13.09117016 22.80397439 9.29050818 56.16534348-9.29050735 78.54702182-23.64856567 28.71611582-65.03355561 31.67218652-81.92538859 31.67218652-95.86115085 0-100.08410888-77.28013449-100.08410889-86.14834661-0.42229605-14.3580575-13.51346621-24.49315778-26.6046372-26.18234116-14.3580575 0-26.18234033 11.82428284-26.18234034 26.18234116 0 47.7194274 32.5167778 138.51302811 152.87108643 138.5130281 51.52008938 0 96.28344608-18.58101636 122.88808246-51.09779415 31.67218652-38.85121527 37.58432794-95.86115085 13.09117016-137.66843683z"  horiz-adv-x="1025" />

    
    <glyph glyph-name="textsms" unicode="&#40961;" d="M512-16c-8 0-16 3.2-22.4 9.6l-96 96c-12.8 12.8-12.8 32.8 0 45.6s32.8 12.8 45.6 0l73.6-73.6 73.6 73.6c5.6 6.4 14.4 9.6 22.4 9.6h224c17.6 0 32 14.4 32 32v511.2c0 17.6-14.4 32-32 32h-640.8c-17.6 0-32-14.4-32-32v-512c0-17.6 14.4-32 32-32h96c17.6 0 32-14.4 32-32s-14.4-32-32-32h-96c-52.8 0-96 43.2-96 96v512c0 52.8 43.2 96 96 96h640c52.8 0 96-43.2 96-96v-512c0-52.8-43.2-96-96-96h-210.4l-86.4-86.4c-7.2-6.4-15.2-9.6-23.2-9.6zM336 400c-26.4 0-48 21.6-48 48s21.6 48 48 48 48-21.6 48-48-21.6-48-48-48zM528 400c-26.4 0-48 21.6-48 48s21.6 48 48 48 48-21.6 48-48-21.6-48-48-48zM720 400c-26.4 0-48 21.6-48 48s21.6 48 48 48 48-21.6 48-48-21.6-48-48-48z"  horiz-adv-x="1024" />

    
    <glyph glyph-name="wendangkeshi" unicode="&#40980;" d="M749.6 264zM602.4 527.2s0.8 0 0 0l0.8-0.8c3.2-2.4 7.2-4 11.2-4h225.6c10.4 0 18.4 8 18.4 18.4 0 5.6-2.4 10.4-5.6 13.6l-224 224c-3.2 3.2-8 5.6-13.6 5.6-9.6 0-17.6-7.2-18.4-16.8v-227.2c-0.8-4.8 1.6-9.6 5.6-12.8zM642.4 699.2l132-131.2h-132v131.2zM724.8 276.8zM858.4 432c0 12.8-10.4 22.4-22.4 22.4s-22.4-9.6-22.4-22.4v-390.4c0-11.2-2.4-14.4-13.6-14.4h-575.2c-11.2 0-13.6 3.2-13.6 14.4v683.2c0 11.2 2.4 14.4 13.6 14.4h289.6c12 0 22.4 9.6 22.4 22.4 0 12-9.6 22.4-22.4 22.4h-325.6c-12.8 0-22.4-10.4-22.4-22.4v-755.2c0-12.8 10.4-22.4 22.4-22.4h647.2c12.8 0 22.4 10.4 22.4 22.4v425.6zM329.6 404.8h364v-44.8h-364v44.8zM329.6 588.8h215.2v-44.8h-215.2v44.8zM329.6 220.8h364v-44.8h-364v44.8z"  horiz-adv-x="1024" />

    
    <glyph glyph-name="increase" unicode="&#40976;" d="M733.6 417.6l-215.2 251.2c-4.8 4.8-10.4 4.8-15.2 0l-210.4-251.2c-4.8-4.8 0-10.4 4.8-10.4h123.2v-302.4c0-4.8 0-10.4 4.8-10.4h164c4.8 0 10.4 4.8 10.4 10.4v303.2h123.2c10.4 0 10.4 4.8 10.4 9.6z"  horiz-adv-x="1024" />

    
    <glyph glyph-name="decrease" unicode="&#40977;" d="M291.2 349.6l215.2-251.2c4.8-4.8 10.4-4.8 15.2 0l209.6 251.2c4.8 4.8 0 10.4-4.8 10.4h-123.2v302.4c0 4.8 0 10.4-4.8 10.4h-164c-4.8 0-10.4-4.8-10.4-10.4v-302.4h-122.4c-10.4 0-10.4-4.8-10.4-10.4z"  horiz-adv-x="1024" />

    
    <glyph glyph-name="people" unicode="&#40960;" d="M668.8 512c0 140.8-115.2 256-256 256s-256-115.2-256-256c0-92.8 51.2-172.8 124.8-217.6-105.6-44.8-192-137.6-217.6-256-3.2-16 6.4-35.2 22.4-38.4h6.4c16 0 28.8 9.6 32 25.6 32 134.4 153.6 233.6 288 233.6h3.2c140.8 0 252.8 115.2 252.8 252.8zM220.8 512c0 105.6 86.4 192 192 192s192-86.4 192-192-86.4-192-192-192-192 86.4-192 192zM732.8 352c-19.2 0-32-16-28.8-35.2 0-16 16-28.8 32-28.8h3.2c105.6 6.4 188.8 96 188.8 201.6s-83.2 192-185.6 201.6c-19.2 0-32-12.8-35.2-28.8 0-19.2 12.8-32 28.8-35.2 70.4-6.4 128-67.2 128-137.6 0-73.6-57.6-134.4-131.2-137.6zM960 137.6c-9.6 41.6-41.6 92.8-80 118.4-16 9.6-35.2 3.2-44.8-9.6-9.6-16-3.2-35.2 9.6-44.8 22.4-12.8 44.8-51.2 51.2-76.8 3.2-16 16-25.6 32-25.6h6.4c19.2 3.2 28.8 19.2 25.6 38.4zM620.8 256l-19.2 12.8c-16 9.6-35.2 6.4-44.8-9.6s-6.4-35.2 9.6-44.8l19.2-12.8c57.6-41.6 102.4-105.6 118.4-176 3.2-16 16-25.6 32-25.6h6.4c16 3.2 28.8 22.4 22.4 38.4-22.4 89.6-73.6 166.4-144 217.6z"  horiz-adv-x="1024" />

    
    <glyph glyph-name="mail" unicode="&#40966;" d="M858.4 720H165.6C109.6 720 64 674.4 64 618.4v-469.6c0-56 45.6-101.6 101.6-101.6h693.6c56 0 101.6 45.6 101.6 101.6V618.4c-0.8 56-46.4 101.6-102.4 101.6z m0-608H165.6c-20.8 0-37.6 16.8-37.6 37.6V618.4c0 20.8 16.8 37.6 37.6 37.6h684.8L542.4 376c-14.4-14.4-38.4-14.4-54.4 1.6L243.2 584.8c-13.6 11.2-33.6 9.6-44.8-4-11.2-13.6-9.6-33.6 4-44.8l242.4-204.8c20-20 46.4-29.6 72-29.6s51.2 9.6 70.4 28.8L896 611.2v-462.4c0-20-16.8-36.8-37.6-36.8z"  horiz-adv-x="1024" />

    
    <glyph glyph-name="iccheckcircleblack24px" unicode="&#40992;" d="M512 839.2c-251.2 0-455.2-204-455.2-455.2s204-455.2 455.2-455.2 455.2 204 455.2 455.2-204 455.2-455.2 455.2zM430.4 212.8l-142.4 142.4 36 36 106.4-106.4 269.6 269.6 36-36-305.6-305.6z"  horiz-adv-x="1024" />

    
    <glyph glyph-name="teaching_management" unicode="&#40994;" d="M733.6 302.4H330.4c-16.8 0-29.6-13.6-29.6-29.6s13.6-29.6 29.6-29.6h403.2c16.8 0 29.6 13.6 29.6 29.6 0.8 16.8-12.8 29.6-29.6 29.6z m-264 371.2h317.6c16.8 0 29.6 13.6 29.6 29.6s-13.6 29.6-29.6 29.6H469.6C452.8 733.6 440 720 440 704s12.8-30.4 29.6-30.4zM882.4 553.6c-13.6 16.8-32 27.2-51.2 27.2l-395.2 1.6L360 733.6H192c-37.6 0-68.8-31.2-68.8-68.8v-561.6c0-37.6 31.2-68.8 68.8-68.8h640c37.6 0 68.8 31.2 68.8 68.8V504c-0.8 17.6-7.2 35.2-18.4 49.6z m-41.6-450.4c0-4.8-4-8.8-8.8-8.8H192c-4.8 0-8.8 4-8.8 8.8V664.8c0 4.8 4 8.8 8.8 8.8h131.2L400 523.2l431.2-1.6c3.2-0.8 9.6-9.6 9.6-16.8v-401.6z"  horiz-adv-x="1024" />

    
    <glyph glyph-name="tree_switcher_close" unicode="&#40995;" d="M212 424h600v-80H212z"  horiz-adv-x="1024" />

    
    <glyph glyph-name="tree_switcher_open" unicode="&#40996;" d="M812 424H552V684h-80v-260H212v-80h260v-260h80V344h260z"  horiz-adv-x="1024" />

    
    <glyph glyph-name="tree_checkbox" unicode="&#40997;" d="M822-16H202c-49.6 0-90 40.4-90 90V694c0 49.6 40.4 90 90 90h620c49.6 0 90-40.4 90-90v-620c0-49.6-40.4-90-90-90zM202 704c-5.5 0-10-4.5-10-10v-620c0-5.5 4.5-10 10-10h620c5.5 0 10 4.5 10 10V694c0 5.5-4.5 10-10 10H202z"  horiz-adv-x="1024" />

    
    <glyph glyph-name="tree_check" unicode="&#40998;" d="M822-16H202c-49.6 0-90 40.4-90 90V694c0 49.6 40.4 90 90 90h620c49.6 0 90-40.4 90-90v-620c0-49.6-40.4-90-90-90zM202 704c-5.5 0-10-4.5-10-10v-620c0-5.5 4.5-10 10-10h620c5.5 0 10 4.5 10 10V694c0 5.5-4.5 10-10 10H202zM777.2 532.5l-56.6 56.6-297-297.1-120.2 120.3-56.6-56.6 176.8-176.8v0.1-0.1z"  horiz-adv-x="1024" />

    
    <glyph glyph-name="dingding" unicode="&#40999;" d="M512 839.1111111111111c-251.22133333333335 0-455.11111111111114-203.88977777777777-455.11111111111114-455.11111111111114s203.88977777777777-455.11111111111114 455.11111111111114-455.11111111111114 455.11111111111114 203.88977777777777 455.11111111111114 455.11111111111114-203.88977777777777 455.11111111111114-455.11111111111114 455.11111111111114z m211.05777777777777-394.92266666666666c-0.7964444444444444-3.982222222222222-3.1857777777777776-9.671111111111111-6.371555555555555-16.839111111111112v-0.7964444444444444c-19.228444444444442-40.96-69.06311111111111-121.17333333333333-69.06311111111111-121.17333333333333v0.7964444444444444l-15.246222222222222-24.917333333333332h69.85955555555554L568.2062222222221 103.0826666666668l30.492444444444445 121.17333333333333h-55.40977777777778l19.228444444444442 80.21333333333334c-15.246222222222222-3.982222222222222-33.678222222222225-8.874666666666666-55.40977777777778-16.042666666666666 0 0-29.695999999999998-16.839111111111112-85.10577777777777 32.88177777777778 0 0-36.977777777777774 32.88177777777778-16.042666666666666 40.96 8.874666666666666 3.1857777777777776 44.94222222222222 8.078222222222221 72.24888888888889 12.060444444444444 37.77422222222222 4.778666666666667 60.98488888888889 8.078222222222221 60.98488888888889 8.078222222222221s-115.5982222222222-1.5928888888888888-142.90488888888888 2.3893333333333335-62.577777777777776 50.51733333333333-69.85955555555554 90.68088888888889c0 0-11.264000000000001 22.528000000000002 24.917333333333332 12.060444444444444 36.06755555555556-10.467555555555554 186.2542222222222-40.96 186.2542222222222-40.96s-195.01511111111114 60.188444444444436-208.66844444444445 74.63822222222221c-12.85688888888889 14.449777777777776-38.57066666666666 79.41688888888889-35.271111111111104 119.58044444444442 0 0 1.5928888888888888 9.671111111111111 12.060444444444444 7.167999999999999 0 0 144.49777777777777-65.76355555555556 243.25688888888888-101.94488888888888 99.44177777777779-35.95377777777778 185.344-54.49955555555555 174.07999999999998-101.83111111111111z"  horiz-adv-x="1024" />

    
    <glyph glyph-name="weixin" unicode="&#41000;" d="M510.6346666666667 475.0222222222222c29.127111111111113 10.695111111111112 24.12088888888889 52.565333333333335-14.904888888888888 51.2-8.533333333333333-5.688888888888888-17.066666666666666-7.850666666666667-20.59377777777778-18.432-5.802666666666666-19.228444444444442 14.791111111111112-39.82222222222222 35.498666666666665-32.768zM358.4 526.9048888888889c-7.850666666666667-5.688888888888888-15.701333333333334-7.850666666666667-19.91111111111111-17.749333333333333-7.054222222222222-19.91111111111111 14.904888888888888-40.50488888888889 34.816-34.13333333333333 11.377777777777776 3.527111111111111 25.6 19.91111111111111 17.066666666666666 36.977777777777774-4.892444444444443 10.695111111111112-14.904888888888888 14.904888888888888-31.971555555555554 14.904888888888888zM561.0382222222222 389.68888888888887l-10.012444444444444-2.844444444444444c-5.688888888888888-3.527111111111111-17.066666666666666-17.749333333333333-10.012444444444444-27.761777777777773 2.1617777777777776-9.216 16.384-19.228444444444442 29.809777777777775-13.539555555555555 6.371555555555555 2.844444444444444 8.533333333333333 8.533333333333333 13.539555555555555 13.539555555555555 2.2755555555555556 19.228444444444442-4.778666666666667 29.923555555555556-23.324444444444445 30.606222222222218zM512 839.1111111111111c-250.99377777777775 0-455.11111111111114-204.11733333333333-455.11111111111114-455.11111111111114s204.11733333333333-455.11111111111114 455.11111111111114-455.11111111111114 455.11111111111114 204.11733333333333 455.11111111111114 455.11111111111114-204.11733333333333 455.11111111111114-455.11111111111114 455.11111111111114zM389.68888888888887 285.12711111111116c-4.323555555555555 1.3653333333333333-18.432 6.371555555555555-22.755555555555553 5.688888888888888-6.371555555555555-2.1617777777777776-12.74311111111111-7.850666666666667-18.432-10.695111111111112-17.066666666666666-8.533333333333333-33.45066666666666-17.066666666666666-50.51733333333333-24.917333333333332V256.56888888888886c5.006222222222222 6.371555555555555 5.006222222222222 16.384 7.850666666666667 24.917333333333332 3.527111111111111 10.695111111111112 9.216 21.390222222222224 10.695111111111112 32.768-33.45066666666666 17.066666666666666-61.212444444444436 54.72711111111111-73.95555555555555 93.184-7.850666666666667 24.917333333333332-5.006222222222222 63.94311111111111 3.527111111111111 85.33333333333333 19.91111111111111 48.355555555555554 57.571555555555555 81.00977777777778 105.9271111111111 100.23822222222222 14.904888888888888 5.688888888888888 31.288888888888888 8.533333333333333 48.355555555555554 12.74311111111111 17.749333333333333 4.209777777777778 51.2 2.844444444444444 67.584-0.6826666666666666 10.012444444444444-2.1617777777777776 17.749333333333333-1.3653333333333333 27.07911111111111-4.323555555555555 44.145777777777774-14.222222222222223 80.3271111111111-34.816 105.24444444444445-68.26666666666667 11.377777777777776-16.384 27.761777777777773-36.977777777777774 28.444444444444446-63.26044444444444-24.917333333333332 2.844444444444444-53.361777777777775-2.844444444444444-71.79377777777778-10.012444444444444-54.044444444444444-19.91111111111111-95.34577777777777-50.51733333333333-110.93333333333334-108.08888888888889-3.527111111111111-12.74311111111111-5.006222222222222-36.295111111111105-1.3653333333333333-50.51733333333333 1.3653333333333333-6.371555555555555 3.527111111111111-12.060444444444444 4.209777777777778-18.432-22.869333333333334-0.5688888888888889-42.09777777777778-1.2515555555555555-59.16444444444445 2.958222222222222z m391.8506666666666 0.7964444444444444c-5.688888888888888-17.749333333333333-21.390222222222224-46.193777777777775-34.816-56.206222222222216-5.006222222222222-3.527111111111111-25.6-17.749333333333333-27.07911111111111-22.755555555555553 5.006222222222222-7.054222222222222 5.006222222222222-17.066666666666666 7.850666666666667-25.6 2.1617777777777776-6.371555555555555 5.688888888888888-13.539555555555555 7.054222222222222-21.390222222222224h-0.6826666666666666c-8.533333333333333 7.850666666666667-29.809777777777775 14.904888888888888-41.30133333333333 20.59377777777778-5.006222222222222 2.844444444444444-11.377777777777776 8.533333333333333-17.066666666666666 10.012444444444444-3.527111111111111 0.6826666666666666-9.216-2.844444444444444-12.74311111111111-3.527111111111111-10.012444444444444-2.844444444444444-20.59377777777778-2.1617777777777776-31.288888888888888-4.323555555555555s-26.282666666666668 0-34.816 1.3653333333333333l-12.85688888888889 0.6826666666666666c-19.91111111111111 5.006222222222222-41.18755555555556 10.012444444444444-56.88888888888889 19.91111111111111-26.96533333333333 16.384-51.882666666666665 38.456888888888884-64.73955555555555 68.26666666666667C438.0444444444445 329.2728888888888 465.0097777777778 391.0542222222222 500.6222222222222 418.1333333333333c17.749333333333333 13.539555555555555 38.456888888888884 24.917333333333332 62.577777777777776 32.654222222222224 7.850666666666667 2.1617777777777776 15.701333333333334 3.527111111111111 22.755555555555553 5.688888888888888 5.006222222222222 1.3653333333333333 10.695111111111112-0.6826666666666666 14.222222222222223 1.3653333333333333 82.48888888888888 1.3653333333333333 134.37155555555555-24.917333333333332 164.97777777777776-74.63822222222221 16.384-23.324444444444445 28.444444444444446-61.78133333333333 16.384-97.28zM676.295111111111 389.68888888888887c-5.688888888888888-3.527111111111111-12.060444444444444-2.844444444444444-15.701333333333334-7.850666666666667-7.850666666666667-10.012444444444444-4.323555555555555-27.07911111111111 4.323555555555555-32.768 19.228444444444442-12.74311111111111 36.977777777777774 2.844444444444444 36.295111111111105 24.917333333333332-8.533333333333333 8.64711111111111-8.533333333333333 15.018666666666665-24.917333333333332 15.701333333333334z"  horiz-adv-x="1024" />

    
    <glyph glyph-name="trophy" unicode="&#41001;" d="M733.024 291.48800000000006a31.392 31.392 0 0 1 11.872 5.088C872.224 389.856 1024 536.192 1024 704c0 10.528-0.928 86.144-1.568 97.792A32 32 0 0 1 990.496 832H864c0 38.272-27.488 64-68.448 64H223.264C183.616 896 160 872.064 160 832H33.504A32 32 0 0 1 1.568 801.888C0.864 790.016 0 713.92 0 704c0-169.088 153.984-316.512 283.136-410.368 1.984-1.44 4.128-2.24 6.24-3.2 39.552-65.888 91.136-120.928 158.624-151.84v-40.416C445.952 86.33600000000001 425.12 0 256 0c-12.128 0-23.232-6.88-28.64-17.696l-32-64c-4.96-9.952-4.448-21.728 1.376-31.168A32.141 32.141 0 0 1 224-128h576a32.032 32.032 0 0 1 28.64 46.336l-32 64A32.128 32.128 0 0 1 768 0c-169.152 0-189.984 86.336-192 98.176v40.608c66.56 31.2 117.664 86.56 157.024 152.704zM860.704 768h98.464c0.448-25.088 0.832-57.216 0.832-64 0-107.584-80.16-208.896-169.376-288.448 47.328 131.456 64.128 272.864 70.08 352.448zM64 704c0 7.584 0.352 39.296 0.736 64h98.016c5.344-79.072 21.152-219.072 67.456-349.76C141.952 497.632 64 597.7919999999999 64 704z m684.032-767.648l0.16-0.352H275.744l0.192 0.352C495.584-55.488000000000056 511.296 86.91200000000003 512 96v9.952l0.064 0.064 0.064-12.928c0.544-6.272 16.256-148.576 235.904-156.736zM532.736 189.98400000000004c-3.968-1.504-17.024-4-20.736-4s-16.928 2.592-20.992 4.064C273.024 269.952 224 690.848 224 832h571.552c1.824 0 3.328-0.192 4.448-0.416-0.128-140.928-49.312-559.904-267.264-641.6z"  horiz-adv-x="1024" />

    
    <glyph glyph-name="person" unicode="&#41010;" d="M878.8894066831275 28.985824395061627c-5.52336329218107 3.314017975308641-135.04623249382715 80.22685181893004-239.43779871604937 89.61656941563785v20.298360098765432c118.752310781893 51.0911104526749 194.1462197201646 173.019355127572 194.1462197201646 317.17913705349787 0 188.76094051028807-145.40253866666666 342.3104400329218-323.9452570864197 342.3104400329218s-323.9452570864197-153.68758360493823-323.9452570864197-342.44852411522623c0-144.1597819259259 78.9840950781893-269.40204457613163 198.8410785185185-319.1123142057613v-17.950930699588476h-0.41425224691358015c-103.56306172839504-5.10911104526749-234.05251950617284-86.85488776954732-239.57588279835386-90.3069898271605-14.91308088888889-9.389717596707818-19.331771522633744-28.997657283950616-9.942053925925928-43.91073817283951 6.075699621399177-9.665885761316872 16.432005794238684-14.91308088888889 26.926396049382717-14.91308088888889 5.799531456790123 0 11.737146995884775 1.6570089876543206 16.98434212345679 4.971026962962964 1.242756740740741 0.6904204115226338 121.65207651028805 76.22241343209878 207.12612345679008 80.50301998353908h30.79275035390947c17.536678452674895 0 31.897423012345676 14.222660477366258 31.897423012345676 31.897423012345676v71.94180688065842c0 13.808408230452672-8.837381267489713 26.09789155555555-21.955369086419754 30.240414024691354-105.77240704526749 34.24485241152263-176.74762534979425 141.3981002798354-176.74762534979425 266.64036293004114 0 153.68758360493823 116.68104954732509 278.653678090535 260.1504110617284 278.653678090535s260.2884951440329-124.96609448559668 260.2884951440329-278.653678090535c0-124.96609448559668-67.79928441152263-229.08149254320986-172.74318696296297-265.1214380246914-12.841819654320986-4.418690633744856-21.54111683950617-16.57008987654321-21.54111683950617-30.102329942386827V87.1192230452674c0-17.674762534979426 14.222660477366258-31.897423012345676 31.897423012345676-31.897423012345676h25.26938706172839c87.68339226337446-6.3518677860082295 212.09715041975304-80.22685181893004 213.33990716049388-80.91727223045267 15.051164971193414-8.975465349794238 34.65910465843622-4.142522469135803 43.634570008230455 11.04672658436214 8.975465349794238 15.051164971193414 4.004438386831276 34.52102057613169-11.04672658436214 43.634570008230455z"  horiz-adv-x="1024" />

    
    <glyph glyph-name="setting" unicode="&#41011;" d="M962.1541083127572 416.03550709465026c0 22.36962133333333-12.28948332510288 43.08223367901234-31.897423012345676 54.267044345679l-71.8037227983539 40.596720197530864c-14.91308088888889 8.42312902057613-27.202564213991767 20.712612345679013-35.6256932345679 35.21144098765432l-13.808408230452672 24.02663032098765c-7.870792691358024 13.53224006584362-12.151399242798353 28.997657283950616-12.427567407407405 44.73924266666666l-1.242756740740741 91.13549432098765c-0.13808408230452676 21.6792009218107-12.427567407407405 42.115645102880656-31.483170765432096 53.16237168724279l-52.33386719341563 30.240414024691354c-20.574528263374486 11.875231078189298-45.98199940740741 11.599062913580246-66.28035950617284-0.9665885761316871l-69.1801252345679-42.253729185185186c-15.465417218106994-9.527801679012347-33.41634791769547-14.636912724279835-51.78153086419752-14.636912724279835h-22.09345316872428c-17.674762534979426 0-35.07335690534979 4.556774716049382-50.262605958847736 13.53224006584362l-74.70348852674897 43.77265409053498c-20.160276016460905 11.875231078189298-45.15349491358025 11.875231078189298-65.31377093004114 0.13808408230452676l-51.91961494650206-30.102329942386827c-19.746023769547325-11.46097883127572-31.897423012345676-32.72592750617284-31.345086683127565-55.23363292181069l1.9331771522633743-88.37381267489712c0.41425224691358015-16.708173958847734-3.8663543045267486-33.14017975308642-12.28948332510288-47.77709247736625l-12.427567407407405-21.54111683950617c-8.699297185185184-15.051164971193414-21.40303275720164-27.478732378600817-37.00653405761317-36.039945481481475l-74.56540444444445-40.87288836213992c-20.298360098765432-11.04672658436214-32.72592750617284-32.03550709465021-32.72592750617284-54.819380674897126l0.2761681646090535-61.9997529547325c0-22.09345316872428 12.151399242798353-42.80606551440328 31.621254847736623-53.99087618106995l77.32708609053498-44.463074502057616c14.636912724279835-8.42312902057613 26.788311967078183-20.43644418106996 35.07335690534979-34.93527282304527l13.117987818930038-22.64578949794238c8.42312902057613-14.636912724279835 12.703735572016459-31.207002600823046 12.427567407407405-47.77709247736625l-1.6570089876543206-84.36937428806583c-0.552336329218107-22.64578949794238 11.599062913580246-43.77265409053498 31.483170765432096-55.23363292181069l52.61003535802469-30.378498106995885c9.942053925925928-5.661447374485595 21.26494867489712-8.699297185185184 32.31167525925925-8.699297185185184 10.908642502057614 0 21.817285004115227 2.761681646090535 31.621254847736623 8.146960855967079l75.9462452674897 42.253729185185186c14.636912724279835 8.285044938271605 31.345086683127565 12.565651489711934 48.32942880658436 12.565651489711934h24.993218897119345c17.536678452674895 0 34.65910465843622-4.556774716049382 49.71026962962962-13.256071901234565l70.42288197530864-40.596720197530864c20.02219193415638-11.46097883127572 44.877326748971186-11.46097883127572 64.76143460082304 0.13808408230452676l53.02428760493826 30.79275035390947c19.055603358024694 11.04672658436214 31.207002600823046 31.483170765432096 31.345086683127565 53.30045576954731l0.9665885761316871 87.26914001646091c0.13808408230452676 15.741585382716048 4.418690633744856 31.207002600823046 12.28948332510288 44.877326748971186l14.636912724279835 25.26938706172839c8.008876773662552 13.9464923127572 19.607939687242794 25.683639308641972 33.554432 34.106768329218106l74.28923627983538 44.73924266666666c18.779435193415637 11.32289474897119 30.51658218930041 31.75933893004115 30.51658218930041 53.43853985185185l-0.41425224691358015 63.242509695473245z m-87.54530818106996-80.91727223045267L807.4999361316873 294.65959874897123c-17.39859437037037-10.494390255144031-31.75933893004115-25.131302979423868-41.8394769382716-42.52989734979424l-13.117987818930038-22.92195766255144c-9.942053925925928-17.122426205761315-15.189249053497942-36.59228181069958-15.465417218106994-56.33830558024691l-0.9665885761316871-78.84601099588477c-0.13808408230452676-8.42312902057613-4.694858798353909-16.017753547325103-12.151399242798353-20.298360098765432l-47.915176559670776-27.754900543209878c-8.008876773662552-4.694858798353909-17.950930699588476-4.694858798353909-25.95980747325103 0l-63.5186778600823 36.73036589300412c-18.503267028806587 10.770558419753085-39.76821570370371 16.293921711934157-61.17124846090534 16.293921711934157h-22.64578949794238c-20.850696427983536 0-41.425224691358025-5.3852792098765425-59.51423947325103-15.465417218106994l-68.62778890534979-38.24929079835391c-7.870792691358024-4.418690633744856-17.674762534979426-4.418690633744856-25.683639308641972 0.13808408230452676l-47.63900839506172 27.478732378600817c-7.594624526748971 4.418690633744856-12.28948332510288 12.427567407407405-12.151399242798353 21.126864592592593l1.5189249053497942 76.08432934979423c0.41425224691358015 20.988780510288063-4.971026962962964 41.8394769382716-15.465417218106994 60.204659884773655l-11.875231078189298 20.574528263374486c-10.356306172839506 17.950930699588476-25.407471144032918 33.00209567078189-43.634570008230455 43.3584018436214l-69.87054564609053 40.18246795061729c-7.594624526748971 4.418690633744856-12.151399242798353 12.28948332510288-12.151399242798353 20.574528263374486l-0.13808408230452676 56.47638966255144c0 8.699297185185184 4.971026962962964 16.708173958847734 12.703735572016459 20.988780510288063l67.38503216460904 36.86844997530864c19.193687440329214 10.494390255144031 35.21144098765432 26.09789155555555 46.120083489711924 45.01541083127572l11.184810666666666 19.46985560493827c10.494390255144031 18.36518294650206 15.879669465020575 39.21587937448559 15.465417218106994 60.204659884773655l-1.6570089876543206 79.81259957201647c-0.13808408230452676 8.561213102880657 4.418690633744856 16.57008987654321 12.151399242798353 21.126864592592593l46.9485879835391 27.202564213991767c4.004438386831276 2.3474293991769546 8.42312902057613 3.5901861399176958 12.979903736625515 3.5901861399176958s9.113549432098765-1.242756740740741 13.117987818930038-3.5901861399176958l67.52311624691357-39.63013162139918c18.779435193415637-11.04672658436214 40.04438386831276-16.84625804115226 61.86166887242798-16.84625804115226h20.02219193415638c22.64578949794238 0.13808408230452676 44.73924266666666 6.213783703703703 63.79484602469135 17.950930699588476l62.27592111934157 38.24929079835391c8.146960855967079 4.971026962962964 18.22709886419753 5.247195127572016 26.51214380246913 0.41425224691358015l47.36284023045267-27.3406482962963c7.3184563621399175-4.280606551440329 12.151399242798353-12.151399242798353 12.151399242798353-20.298360098765432l1.104672658436214-82.43619713580244c0.2761681646090535-19.746023769547325 5.661447374485595-39.21587937448559 15.465417218106994-56.33830558024691l12.565651489711934-21.6792009218107c10.494390255144031-18.22709886419753 25.95980747325103-33.41634791769547 44.463074502057616-43.91073817283951l64.89951868312757-36.73036589300412c7.594624526748971-4.280606551440329 12.28948332510288-12.28948332510288 12.28948332510288-20.712612345679013l0.13808408230452676-57.16681007407408c0.13808408230452676-8.42312902057613-4.418690633744856-16.155837629629627-11.737146995884775-20.574528263374486zM512 556.6051028806585c-95.13993270781893 0-172.60510288065842-77.46517017283949-172.60510288065842-172.60510288065842s77.46517017283949-172.60510288065842 172.60510288065842-172.60510288065842 172.60510288065842 77.46517017283949 172.60510288065842 172.60510288065842-77.46517017283949 172.60510288065842-172.60510288065842 172.60510288065842z m0-281.69152790123456c-60.204659884773655 0-109.08642502057612 48.88176513580246-109.08642502057612 109.08642502057612s48.88176513580246 109.08642502057612 109.08642502057612 109.08642502057612 109.08642502057612-48.88176513580246 109.08642502057612-109.08642502057612-48.88176513580246-109.08642502057612-109.08642502057612-109.08642502057612z"  horiz-adv-x="1024" />

    
    <glyph glyph-name="eventnote" unicode="&#41012;" d="M836.3595093333332 706.4263321810699H702.556033580247v78.70792691358024c0 17.536678452674895-14.222660477366258 31.75933893004115-31.75933893004115 31.75933893004115s-31.75933893004115-14.222660477366258-31.75933893004115-31.75933893004115v-78.70792691358024H384.6864761152264v78.70792691358024c0 17.536678452674895-14.222660477366258 31.75933893004115-31.75933893004115 31.75933893004115s-31.75933893004115-14.222660477366258-31.75933893004115-31.75933893004115v-78.70792691358024h-133.80347575308642c-49.57218554732509 0-89.75465349794237-40.18246795061729-89.75465349794237-89.75465349794237v-538.5279209876543c0-49.57218554732509 40.18246795061729-89.75465349794237 89.75465349794237-89.75465349794237h648.9951868312758c49.57218554732509 0 89.75465349794237 40.18246795061729 89.75465349794237 89.75465349794237v538.5279209876543c0 49.57218554732509-40.18246795061729 89.75465349794237-89.75465349794237 89.75465349794237z m26.235975637860076-628.2825744855967c0-14.498828641975308-11.737146995884775-26.235975637860076-26.235975637860076-26.235975637860076h-648.9951868312758c-14.498828641975308 0-26.235975637860076 11.737146995884775-26.235975637860076 26.235975637860076v538.5279209876543c0 14.498828641975308 11.737146995884775 26.235975637860076 26.235975637860076 26.235975637860076h133.80347575308642v-15.189249053497942c0-17.536678452674895 14.222660477366258-31.75933893004115 31.75933893004115-31.75933893004115s31.75933893004115 14.222660477366258 31.75933893004115 31.75933893004115v15.189249053497942h254.2127955226337v-15.189249053497942c0-17.536678452674895 14.222660477366258-31.75933893004115 31.75933893004115-31.75933893004115s31.75933893004115 14.222660477366258 31.75933893004115 31.75933893004115v15.189249053497942h133.80347575308642c14.498828641975308 0 26.235975637860076-11.737146995884775 26.235975637860076-26.235975637860076v-538.5279209876543zM756.2707415967077 475.82591473251034h-488.8176513580247c-17.536678452674895 0-31.75933893004115-14.222660477366258-31.75933893004115-31.75933893004115s14.222660477366258-31.75933893004115 31.75933893004115-31.75933893004115h488.8176513580247c17.536678452674895 0 31.75933893004115 14.222660477366258 31.75933893004115 31.75933893004115s-14.222660477366258 31.75933893004115-31.75933893004115 31.75933893004115zM562.9530263703705 282.37011542386836h-295.49993613168715c-17.536678452674895 0-31.75933893004115-14.222660477366258-31.75933893004115-31.75933893004115s14.222660477366258-31.75933893004115 31.75933893004115-31.75933893004115h295.49993613168715c17.536678452674895 0 31.75933893004115 14.222660477366258 31.75933893004115 31.75933893004115s-14.222660477366258 31.75933893004115-31.75933893004115 31.75933893004115z"  horiz-adv-x="1024" />

    
    <glyph glyph-name="dashboard" unicode="&#41013;" d="M384.54839203292175 798.2522469135802H193.3019380411523c-52.74811944032921 0-95.5541849547325-42.94414959670782-95.5541849547325-95.5541849547325v-191.24645399176953c0-52.74811944032921 42.94414959670782-95.5541849547325 95.5541849547325-95.5541849547325h191.24645399176953c52.74811944032921 0 95.5541849547325 42.94414959670782 95.5541849547325 95.5541849547325V702.6980619588477c0 52.61003535802469-42.80606551440328 95.5541849547325-95.5541849547325 95.5541849547325z m31.897423012345676-286.800638946502c0-17.536678452674895-14.360744559670783-31.897423012345676-31.897423012345676-31.897423012345676H193.3019380411523c-17.536678452674895 0-31.897423012345676 14.360744559670783-31.897423012345676 31.897423012345676V702.6980619588477c0 17.536678452674895 14.360744559670783 31.897423012345676 31.897423012345676 31.897423012345676h191.24645399176953c17.536678452674895 0 31.897423012345676-14.360744559670783 31.897423012345676-31.897423012345676v-191.24645399176953zM384.54839203292175 352.1025769876544H193.3019380411523c-52.74811944032921 0-95.5541849547325-42.94414959670782-95.5541849547325-95.5541849547325v-191.24645399176953c0-52.74811944032921 42.94414959670782-95.5541849547325 95.5541849547325-95.5541849547325h191.24645399176953c52.74811944032921 0 95.5541849547325 42.94414959670782 95.5541849547325 95.5541849547325V256.5483920329219c0 52.74811944032921-42.80606551440328 95.5541849547325-95.5541849547325 95.5541849547325z m31.897423012345676-286.800638946502c0-17.536678452674895-14.360744559670783-31.897423012345676-31.897423012345676-31.897423012345676H193.3019380411523c-17.536678452674895 0-31.897423012345676 14.222660477366258-31.897423012345676 31.897423012345676V256.5483920329219c0 17.536678452674895 14.360744559670783 31.897423012345676 31.897423012345676 31.897423012345676h191.24645399176953c17.536678452674895 0 31.897423012345676-14.222660477366258 31.897423012345676-31.897423012345676v-191.24645399176953zM830.6980619588476 224.65096902057633H639.4516079670781c-52.74811944032921 0-95.5541849547325-42.94414959670782-95.5541849547325-95.5541849547325v-63.79484602469135c0-52.74811944032921 42.94414959670782-95.5541849547325 95.5541849547325-95.5541849547325h191.24645399176953c52.74811944032921 0 95.5541849547325 42.94414959670782 95.5541849547325 95.5541849547325v63.79484602469135c0 52.74811944032921-42.94414959670782 95.5541849547325-95.5541849547325 95.5541849547325z m31.75933893004115-159.34903097942384c0-17.536678452674895-14.222660477366258-31.897423012345676-31.897423012345676-31.897423012345676H639.4516079670781c-17.536678452674895 0-31.897423012345676 14.222660477366258-31.897423012345676 31.897423012345676v63.79484602469135c0 17.536678452674895 14.222660477366258 31.897423012345676 31.897423012345676 31.897423012345676h191.24645399176953c17.536678452674895 0 31.897423012345676-14.222660477366258 31.897423012345676-31.897423012345676v-63.79484602469135zM830.6980619588476 798.2522469135802H639.4516079670781c-52.74811944032921 0-95.5541849547325-42.94414959670782-95.5541849547325-95.5541849547325V384c0-52.74811944032921 42.94414959670782-95.5541849547325 95.5541849547325-95.5541849547325h191.24645399176953c52.74811944032921 0 95.5541849547325 42.94414959670782 95.5541849547325 95.5541849547325V702.6980619588477c0 52.61003535802469-42.94414959670782 95.5541849547325-95.5541849547325 95.5541849547325z m31.75933893004115-414.25224691358017c0-17.536678452674895-14.222660477366258-31.897423012345676-31.897423012345676-31.897423012345676H639.4516079670781c-17.536678452674895 0-31.897423012345676 14.360744559670783-31.897423012345676 31.897423012345676V702.6980619588477c0 17.536678452674895 14.222660477366258 31.897423012345676 31.897423012345676 31.897423012345676h191.24645399176953c17.536678452674895 0 31.897423012345676-14.360744559670783 31.897423012345676-31.897423012345676V384z"  horiz-adv-x="1024" />

    
    <glyph glyph-name="department_management" unicode="&#40993;" d="M871.0186139917695 245.91591769547324h-51.367278617283944c0.13808408230452676 1.3808408230452676 0.2761681646090535 2.761681646090535 0.2761681646090535 4.142522469135803v133.94155983539093c0 17.536678452674895-14.222660477366258 31.75933893004115-31.75933893004115 31.75933893004115-0.9665885761316871 0-2.0712612345679013 0-3.0378498106995884-0.13808408230452676-1.104672658436214 0.13808408230452676-2.209345316872428 0.13808408230452676-3.314017975308641 0.13808408230452676H542.378498106996v106.32474337448558h52.47195127572015c30.51658218930041 0 55.23363292181069 24.717050732510284 55.23363292181069 55.23363292181069V743.0186139917695c0 30.51658218930041-24.717050732510284 55.23363292181069-55.23363292181069 55.23363292181069H429.149550617284c-30.51658218930041 0-55.23363292181069-24.717050732510284-55.23363292181069-55.23363292181069v-165.7008987654321c0-30.51658218930041 24.717050732510284-55.23363292181069 55.23363292181069-55.23363292181069h49.71026962962962v-106.32474337448558H235.83183539094648c-17.536678452674895 0-31.75933893004115-14.222660477366258-31.75933893004115-31.75933893004115v-133.94155983539093c0-1.3808408230452676 0.13808408230452676-2.761681646090535 0.2761681646090535-4.142522469135803H152.98138600823052c-30.51658218930041 0-55.23363292181069-24.717050732510284-55.23363292181069-55.23363292181069v-165.7008987654321c0-30.51658218930041 24.717050732510284-55.23363292181069 55.23363292181069-55.23363292181069h165.7008987654321c30.51658218930041 0 55.23363292181069 24.717050732510284 55.23363292181069 55.23363292181069V190.68228477366256c0 30.51658218930041-24.717050732510284 55.23363292181069-55.23363292181069 55.23363292181069h-51.367278617283944c0.13808408230452676 1.3808408230452676 0.2761681646090535 2.761681646090535 0.2761681646090535 4.142522469135803v102.1822209053498h488.8176513580247v-102.1822209053498c0-1.3808408230452676 0.13808408230452676-2.761681646090535 0.2761681646090535-4.142522469135803H705.3177152263374c-30.51658218930041 0-55.23363292181069-24.717050732510284-55.23363292181069-55.23363292181069v-165.7008987654321c0-30.51658218930041 24.717050732510284-55.23363292181069 55.23363292181069-55.23363292181069h165.7008987654321c30.51658218930041 0 55.23363292181069 24.717050732510284 55.23363292181069 55.23363292181069V190.68228477366256c0 30.51658218930041-24.717050732510284 55.23363292181069-55.23363292181069 55.23363292181069zM437.4345955555555 734.7335690534978h149.1308088888889v-149.1308088888889H437.4345955555555V734.7335690534978z m-127.0373557201646-701.4671381069957H161.26643094650217V182.3972398353909h149.1308088888889v-149.1308088888889z m552.336329218107 0H713.6027601646091V182.3972398353909h149.1308088888889v-149.1308088888889z"  horiz-adv-x="1024" />

    
    <glyph glyph-name="power" unicode="&#41014;" d="M810.3997018600824 663.2060144197529c-12.28948332510288 12.565651489711934-32.31167525925925 12.841819654320986-44.877326748971186 0.552336329218107-12.565651489711934-12.28948332510288-12.841819654320986-32.31167525925925-0.552336329218107-44.877326748971186 63.10442561316873-64.76143460082304 97.76353027160492-149.82122930041152 97.76353027160492-239.7139668806584 0-92.3782510617284-36.45419772839506-179.09505474897117-102.59647315226337-244.54690976131684-66.28035950617284-65.31377093004114-154.37800401646092-101.35371641152263-248.1370959012345-101.35371641152263s-181.8567363950617 36.039945481481475-248.1370959012345 101.49180049382716c-66.14227542386831 65.31377093004114-102.59647315226337 152.16865869958846-102.59647315226337 244.40882567901235 0 90.3069898271605 35.07335690534979 175.78103677366252 98.86820293004114 240.6805554567901 12.28948332510288 12.565651489711934 12.151399242798353 32.587843423868314-0.41425224691358015 44.877326748971186-12.565651489711934 12.28948332510288-32.587843423868314 12.151399242798353-44.877326748971186-0.41425224691358015-75.3939089382716-76.77474976131685-116.95721771193415-178.12846617283947-116.95721771193415-285.14362995884767 0-109.50067726748969 43.08223367901234-212.37331858436215 121.51399242798354-289.70040467489713 78.29367466666666-77.18900200823046 182.2709886419753-119.8569834403292 292.73825448559666-119.8569834403292 110.6053499259259 0 214.58266390123455 42.52989734979424 292.73825448559666 119.8569834403292 78.29367466666666 77.32708609053498 121.51399242798354 180.19972740740738 121.51399242798354 289.70040467489713-0.13808408230452676 106.46282745679011-41.287140609053495 207.40229162139914-115.99062913580246 284.0389573004115zM512 273.53273415637864c17.536678452674895 0 31.75933893004115 14.222660477366258 31.75933893004115 31.75933893004115V766.492907983539c0 17.536678452674895-14.222660477366258 31.75933893004115-31.75933893004115 31.75933893004115s-31.75933893004115-14.222660477366258-31.75933893004115-31.75933893004115v-461.2008348971193c0-17.536678452674895 14.222660477366258-31.75933893004115 31.75933893004115-31.75933893004115z"  horiz-adv-x="1024" />

    
    <glyph glyph-name="notificationson" unicode="&#41015;" d="M871.8287072746226 172.786587706996c-1.1783175023319616 1.6201865657064471-113.56034928724279 158.18912468806585-113.56034928724279 273.66423991659804C758.2683579873801 606.8492976285322 685.8018315939644 689.0369434161867 603.319606430727 719.8204881646091v14.581679091358026c0 50.37307322469136-40.94653320603565 91.4668961185185-91.4668961185185 91.4668961185185s-91.4668961185185-40.94653320603565-91.4668961185185-91.4668961185185v-15.759996593689985c-10.310278145404663-7.511774077366255-15.318127530315502-20.76784597860082-11.194016272153632-33.582048816460905 5.155139072702331-16.054575969272975 22.240742856515773-24.74466754897119 38.29531882578875-19.73681816406036 16.938314096021948 5.4497184482853225 35.20223538216735 8.100932828532235 54.20260510727022 8.100932828532235h20.32597691522634c109.73081740466392 0 175.27472847187929-84.83886016790125 175.27472847187929-226.9734088866941 0-102.80820207846364 69.37344294979424-224.17490481865568 104.87025770754458-279.5558274282578-54.49718448285322-24.74466754897119-174.09641096954732-72.46652639341565-290.16068494924554-72.46652639341565-115.76969460411519 0-235.66350046639226 48.01643822002744-290.307974637037 73.0556851445816 35.49681475775034 55.23363292181069 104.87025770754458 176.15846659862825 104.87025770754458 279.11395836488344 0 59.505033867764055 11.04672658436214 108.69978959012344 32.84560037750343 146.55323935253773 8.395512204115226 14.581679091358026 3.387662819204389 33.28746944087791-11.194016272153632 41.682981644993134-14.728968779149517 8.395512204115226-33.28746944087791 3.387662819204389-41.682981644993134-11.194016272153632-27.24859224142661-47.132700093278466-41.09382289382715-106.785023648834-41.09382289382715-177.04220472537722 0-115.47511522853222-112.38203178491082-271.6021842875171-113.56034928724279-273.2223708532236-5.155139072702331-7.069905013991768-7.069905013991768-16.054575969272975-5.007849384910837-24.74466754897119 1.9147659412894378-8.542801891906722 7.511774077366255-15.907286281481483 15.170837842524008-20.031397539643347 5.4497184482853225-2.945793755829904 102.21904332729765-54.49718448285322 222.40742856515774-80.42016953415637 20.32597691522634-63.18727606255143 70.2571810765432-106.04857520987652 127.25829025185186-106.04857520987652s106.9323133366255 42.71400945953361 127.25829025185186 106.04857520987652c120.04109555006858 25.77569536351166 216.95771011687245 77.17979640274348 222.40742856515774 79.9783004707819 7.806353452949245 4.124111258161865 13.403361589026062 11.488595647736624 15.318127530315502 20.031397539643347 2.209345316872428 8.542801891906722 0.2945793755829904 17.52747284718793-4.860559697119341 24.59737786117969zM542.4889653728397 733.518429129218c-6.775325638408778 0.5891587511659808-13.550651276817556 0.883738126748971-20.32597691522634 0.883738126748971h-20.32597691522634c-6.922615326200274 0-13.550651276817556-0.883738126748971-20.32597691522634-1.472896877914952v1.472896877914952c0 16.791024408230452 13.697940964609051 30.48896537283951 30.48896537283951 30.48896537283951s30.48896537283951-13.697940964609051 30.48896537283951-30.48896537283951v-0.883738126748971zM512 3.1088673711932415c-21.20971504197531 0-41.09382289382715 12.81420283786008-55.23363292181069 33.582048816460905 18.2639212861454-1.9147659412894378 36.8224219478738-3.0930834436213988 55.23363292181069-3.0930834436213988s36.9697116356653 1.1783175023319616 55.23363292181069 3.0930834436213988c-14.139810027983536-20.915135666392313-34.02391787983539-33.582048816460905-55.23363292181069-33.582048816460905z"  horiz-adv-x="1024" />

    
    <glyph glyph-name="list_course" unicode="&#41016;" d="M373.0819868444445 677.2882773333333h277.07483135999996c7.611946097777777 0 13.092546559999999 5.4806016 13.092547697777778 13.092546559999999V729.0495089777778c0 7.611946097777777-5.4806016 13.092546559999999-13.092547697777778 13.092547697777778h-51.15227591111111v30.44778325333333c0 7.611946097777777-5.4806016 13.092546559999999-13.092547697777778 13.092546559999999H438.0880054044445c-7.611946097777777 0-13.092546559999999-5.4806016-13.092547697777778-13.092546559999999v-30.44778325333333h-51.76123164444445c-6.850751146666667 0-13.092546559999999-5.4806016-13.092547697777778-13.092547697777778v-38.66868508444444c-0.1522392177777778-6.850751146666667 6.089556195555554-13.092546559999999 12.940308479999999-13.092546559999999zM806.3539495822222 742.2942947555556h-100.93440341333331v-111.28664974222221H315.07895864888883v111.28664974222221h-97.43290823111111c-29.07763370666666 0-53.28362154666665-24.20598784-53.28362154666665-53.28362154666665v-653.8661558044444c0-29.07763370666666 24.20598784-53.28362154666665 53.28362154666665-53.28362154666665H806.5061876622223c29.07763370666666 0 53.28362154666665 24.20598784 53.28362154666665 53.28362154666665v654.6273507555557c-0.1522392177777778 29.07763370666666-24.35822705777778 52.52242659555556-53.43585962666667 52.52242659555556z m-66.22393002666666-550.1914521599999H283.8699804444444v62.26571832888889h456.1077998933332v-62.26571832888889z m0 181.77326876444442H283.8699804444444v62.26571832888889h456.1077998933332v-62.26571832888889z"  horiz-adv-x="1024" />

    
    <glyph glyph-name="list_course_done" unicode="&#41017;" d="M812.234375 748.21875H708.875v-113.20312500000001H311.609375V748.21875H212.46875c-29.53125 0-54.140625-24.609375-54.140625-54.140625v-665.15625c0-29.53125 24.609375-54.140625 54.140625-54.140625h599.0625c29.53125 0 54.140625 24.609375 54.140625 54.140625V694.78125c0 29.53125-23.90625 53.4375-53.4375 53.4375zM501.453125 217.359375l-42.890625-42.890625-154.6875 151.875 42.890625 42.890625 110.390625-108.984375 219.375 216.5625 42.890625-42.890625-217.96875-216.5625zM370.671875 682.125H652.625c7.734375 0 13.359375 5.625 13.359375 13.359375v39.375c0 7.734375-5.625 13.359375-13.359375 13.359375h-52.03125V779.15625c0 7.734375-5.625 13.359375-13.359375 13.359375H436.765625c-7.734375 0-13.359375-5.625-13.359375-13.359375v-30.9375h-52.734375c-7.03125 0-13.359375-5.625-13.359375-13.359375v-39.375c0-7.03125 6.328125-13.359375 13.359375-13.359375z"  horiz-adv-x="1024" />

    
    <glyph glyph-name="more" unicode="&#41024;" d="M512 832C264.8 832 64 631.2 64 384s200.8-448 448-448 448 200.8 448 448S759.2 832 512 832z m0-832c-211.2 0-384 172-384 384 0 211.2 172 384 384 384 211.2 0 384-172 384-384 0-211.2-172.8-384-384-384zM304.8 384m-48 0a48 48 0 1 1 96 0 48 48 0 1 1-96 0ZM719.2 384m-48 0a48 48 0 1 1 96 0 48 48 0 1 1-96 0ZM512 384m-48 0a48 48 0 1 1 96 0 48 48 0 1 1-96 0Z"  horiz-adv-x="1024" />

    
    <glyph glyph-name="up" unicode="&#41029;" d="M881.632824 435.848948L544.715014 759.787796c-12.042336 9.767673-19.401542 12.978962-32.380505 12.978962h-0.802822c-12.978962 0-20.338168-3.21129-32.380504-12.978962L142.233373 435.848948c-10.169084-10.169084-15.119822-22.077617-14.584608-33.049523-0.401411-10.03528 2.809878-19.133934 8.964851-25.288906 10.570495-10.436691 22.880439-15.253626 35.190382-14.450804 12.17614-0.802822 24.619888 4.014112 35.190383 14.450804l221.846596 216.360643 37.331243 35.45799v-588.736443c0-25.957925 19.401542-45.359467 45.359467-45.359467h0.802822c25.957925 0 45.359467 19.401542 45.359467 45.359467v588.736443l37.331243-35.45799 221.846596-216.360643c10.570495-10.436691 22.880439-15.253626 35.190383-14.450804 12.309944-0.936626 24.619888 3.880308 35.190383 14.450804 6.154972 6.154972 9.366262 15.38743 8.96485 25.288906 0.535215 10.971906-4.28172 22.880439-14.584607 33.049523z"  horiz-adv-x="1024" />

    
    <glyph glyph-name="down" unicode="&#41030;" d="M896.217431 365.20057499999996c0.401411 9.901477-2.809878 19.133934-8.96485 25.288906-10.570495 10.570495-22.880439 15.38743-35.190383 14.450804-12.309944 0.802822-24.619888-4.014112-35.190383-14.450804L595.025219 174.12883799999997 557.693976 138.67084799999998V727.407291c0 25.957925-19.401542 45.359467-45.359467 45.359467h-0.802822c-25.957925 0-45.359467-19.401542-45.359467-45.359467v-588.736443l-37.331243 35.45799L206.994381 390.489481c-10.570495 10.436691-23.014243 15.253626-35.190383 14.450804-12.309944 0.802822-24.619888-4.014112-35.190382-14.450804-6.154972-6.154972-9.366262-15.253626-8.964851-25.288906-0.535215-10.971906 4.415523-22.880439 14.584608-33.049523L479.151183 8.212204000000042c12.042336-9.767673 19.401542-12.978962 32.380504-12.978962h0.802822c12.978962 0 20.338168 3.21129 32.380505 12.978962l336.91781 323.938848c10.302888 10.169084 15.119822 22.077617 14.584607 33.049523z"  horiz-adv-x="1024" />

    
    <glyph glyph-name="copy" unicode="&#41031;" d="M677.6 664H174.4c-61.6 0-112-50.4-112-112v-503.2c0-61.6 50.4-112 112-112h503.2c61.6 0 112 50.4 112 112V552c-0.8 61.6-50.4 112-112 112z m56-615.2c0-31.2-24.8-56-56-56H174.4c-31.2 0-56 24.8-56 56V552c0 31.2 24.8 56 56 56h503.2c31.2 0 56-24.8 56-56v-503.2zM230.4 360h391.2v56H230.4v-56zM230.4 184.79999999999995h223.2v56H230.4v-56zM844.8 831.2H341.6c-61.6 0-112-50.4-112-112h56c0 31.2 24.8 56 56 56h503.2c31.2 0 56-24.8 56-56V216c0-31.2-24.8-56-56-56v-56c61.6 0 112 50.4 112 112V719.2c0 62.4-50.4 112-112 112z"  horiz-adv-x="1024" />

    
    <glyph glyph-name="move" unicode="&#41032;" d="M933.8749999999999 373.98046875a26.3671875 26.3671875 0 0 1-5.80078125 29.00390625l-105.46875 105.46875a26.47265625 26.47265625 0 0 1-37.44140624999999-37.44140624999999l58.53515625000001-60.64453125H538.3671875V715.69921875l62.753906249999986-62.753906249999986a26.47265625 26.47265625 0 0 1 37.44140624999999 37.44140624999999l-105.46875 105.46875a26.3671875 26.3671875 0 0 1-37.44140624999999 0l-105.46875-105.46875a26.47265625 26.47265625 0 0 1 37.44140624999999-37.44140624999999l58.0078125 62.753906249999986V410.3671875H180.30078125l62.753906249999986 62.753906249999986a26.47265625 26.47265625 0 0 1-37.44140624999999 37.44140624999999l-105.46875-105.46875a26.3671875 26.3671875 0 0 1 0-37.44140624999999l105.46875-105.46875a26.47265625 26.47265625 0 1 1 37.44140624999999 37.44140624999999L180.30078125 357.6328125H485.6328125v-305.33203125l-62.753906249999986 62.753906249999986a26.47265625 26.47265625 0 0 1-37.44140624999999-37.44140624999999l105.46875-105.46875a26.3671875 26.3671875 0 0 1 37.44140624999999 0l105.46875 105.46875a26.47265625 26.47265625 0 1 1-37.44140624999999 37.44140624999999L538.3671875 52.30078125V357.6328125h305.33203125l-62.753906249999986-62.753906249999986a26.47265625 26.47265625 0 1 1 37.44140624999999-37.44140624999999l105.46875 105.46875a26.3671875 26.3671875 0 0 1 10.01953125 11.074218749999998z"  horiz-adv-x="1026" />

    
    <glyph glyph-name="questionnaire" unicode="&#41033;" d="M752 529.5H272c-16.5 0-30-13.5-30-30s13.5-30 30-30h480c16.5 0 30 13.5 30 30s-13.5 30-30 30zM557 329.25c0 16.5-13.5 30-30 30H272c-16.5 0-30-13.5-30-30s13.5-30 30-30h255c16.5 0 30 13.5 30 30zM490.25 58.5s0.75 0 0 0c0.75 0 0.75 0 0 0 2.25-2.25 4.5-3.75 6.75-4.5 0.75-0.75 2.25-1.5 3-2.25 3.75-1.5 7.5-2.25 11.25-2.25s7.5 0.75 11.25 2.25c1.5 0.75 2.25 1.5 3 2.25 2.25 1.5 4.5 2.25 6.75 4.5l240 243c12 12 11.25 30.749999999999996 0 42.75-12 12-30.749999999999996 11.25-42.75 0L512 122.25 415.25 222c-11.25 12-30.749999999999996 12-42 0.75-12-11.25-12-30.749999999999996-0.75-42.75l117.75-121.5zM362 657h300c16.5 0 30 13.5 30 30s-13.5 30-30 30h-9.75C638.75 782.25 581 831 512 831s-126.74999999999999-48.75-140.25-114H362c-16.5 0-30-13.5-30-30s13.5-30 30-30z m150 121.5c39.75 0 73.5-25.5 86.25-61.49999999999999h-172.5c12.75 36 46.5 61.49999999999999 86.25 61.49999999999999zM826.25 717H752c-16.5 0-30-13.5-30-30s13.5-30 30-30h60.75c16.5 0 29.25-13.5 29.25-30v-600c0-16.5-13.5-30-30-30H212c-16.5 0-30 13.5-30 30v600c0 16.5 13.5 30 29.25 30H272c16.5 0 30 13.5 30 30s-13.5 30-30 30h-74.25c-42 0-75.75-40.5-75.75-90v-600c0-49.5 40.5-90 90-90h600c21.75 0 42 7.5 57 20.25 4.5 3.75 8.25 7.5 12 12 12.75 15.75 20.25 35.25 20.25 57v600c0.75 50.25-33 90.75-75 90.75z"  horiz-adv-x="1024" />

    
    <glyph glyph-name="dingding1" unicode="&#41063;" d="M871.2944 499.3728c-1.6032-6.696-5.496-16.488-10.9728-28.3056h0.1296l-0.6528-1.1088c-31.9296-68.4288-115.3104-202.6464-115.3104-202.6464s-0.1008 0.3264-0.4272 0.8208l-24.3552-42.4464h117.4416l-224.2944-298.752 50.8992 203.232h-92.3952l32.0928 134.3712a1299.7296 1299.7296 0 0 1-93.0432-26.6064s-49.2-28.8624-141.6912 55.4976c0 0-62.424 55.0512-26.2512 68.7888 15.408 5.8752 74.6976 13.2912 121.3824 19.5888 63.0432 8.5536 101.8608 13.056 101.8608 13.056s-194.448-2.8992-240.5808 4.3824c-46.128 7.2432-104.6352 84.3264-117.1056 152.136 0 0-19.2624 37.1856 41.4624 19.5888 60.7248-17.6304 312.1056-68.592 312.1056-68.592S234.6992 602.7647999999999 212.9552 627.2496c-21.7728 24.4896-64.0224 133.6944-58.536 200.784 0 0 2.3808 16.7472 19.5216 12.2736 0 0 241.6896-110.6448 406.9776-171.2016 165.264-60.5616 308.9424-91.344 290.4048-169.7664l-0.0288 0.0336z"  horiz-adv-x="1024" />

    
    <glyph glyph-name="exam" unicode="&#41041;" d="M677.75 65.25c0-18-14.25-32.25-32.25-32.25H179.75c-18 0-32.25 14.25-32.25 32.25V700.5c0 18 14.25 32.25 31.5 32.25H647c18 0 31.5-14.25 31.5-32.25v-210l61.5 61.5V700.5C741.5 753 706.25 796.5 662 796.5H165.5C121.25 796.5 85.25 753 85.25 702v-635.25c0-52.5 43.5-94.5 94.5-94.5h465.75c22.5 0 44.25 7.5 60 21 5.25 4.5 8.25 7.5 12.75 12.75 13.5 17.25 21 37.5 21 60V180.75l-61.5-62.25v-53.25zM545.75 566.25c0 18-14.25 32.25-32.25 32.25H244.25c-18 0-32.25-14.25-32.25-32.25s14.25-32.25 32.25-32.25h270c17.25 0 31.5 14.25 31.5 32.25zM237.5 405.75c-13.5 0-24.75-14.25-24.75-32.25s11.25-32.25 24.75-32.25h210.75c13.5 0.75 24.75 15 24.75 32.25 0 18-11.25 32.25-24.75 32.25H237.5zM911 538.5c-18 18-41.25 28.5-66.75 28.5-25.5 0-49.5-9.75-67.5-27.75L536 297.75c-18-17.25-27.75-40.5-28.5-66 0-12 2.25-24 6.75-35.25l-40.5-40.5c-3.75-3.75 4.5-15.75 15.75-28.5 12.75-12.75 25.5-19.5 28.5-15.75l37.5 37.5c14.25-8.25 30-12 46.5-12 24.75 0 48.75 9.75 66.75 27l241.5 241.5c18 17.25 27.75 40.5 28.5 66 0.75 24.75-9.75 48.75-27.75 66.75zM623.75 210c-6-5.25-13.5-8.25-21-8.25-8.25 0-15.75 3-21 8.25-6 6-9 13.5-9 21.75 0 7.5 3 15 8.25 20.25l107.25 107.25 42-42-106.5-107.25zM865.25 451.5l-90-90-42 42 89.25 89.25c6 6 13.5 9 21 9 7.5 0 15-3 20.25-8.25l0.75-0.75c6-6 9-13.5 9-21.75 0-7.5-3-14.25-8.25-19.5z"  horiz-adv-x="1024" />

    
    <glyph glyph-name="guding" unicode="&#41058;" d="M884.8 431.2l-60-34.4-228.8 308 72 40.8L584 888 55.2 588l84-142.4 72 40.8 157.6-348-60-34.4 84-142.4L968 288l-83.2 143.2zM162.4 531.2l-20 33.6 418.4 237.6 20-33.6-418.4-237.6z m104.8-12.8l272.8 155.2 228.8-308-172-97.6-172-97.6-157.6 348zM416.8 48l-20 33.6 464.8 264 20-33.6-464.8-264zM668.8 83.20000000000005l120-203.2 55.2 31.2-120 203.2z"  horiz-adv-x="1024" />

    
    <glyph glyph-name="suiji" unicode="&#41059;" d="M71.648 824.352v-880.8h880.8V824.352H71.648z m824.544-805.728H127.808V749.376h768.288v-730.752zM466.976 429.024h90.048v-90.048h-90.048zM301.952 594.048H392V504h-90.048zM632 594.048h90.048V504H632zM301.952 264H392v-90.048h-90.048zM632 264h90.048v-90.048H632z"  horiz-adv-x="1024" />

    
    <glyph glyph-name="phone" unicode="&#41060;" d="M274.4 197.60000000000002c-188.8 252-149.6 440-134.4 487.2C159.2 770.4 236.8 832 324 832h5.6c104-3.2 186.4-90.4 183.2-194.4-1.6-43.2-18.4-85.6-48-119.2l-4.8-4.8c-8.8-9.6-17.6-17.6-27.2-24C406.4 456 416 408 460.8 348c44.8-60.8 91.2-83.2 136.8-67.2 32.8 24 70.4 36 109.6 36h5.6c50.4-1.6 96.8-23.2 132-60s52.8-85.6 51.2-136c-3.2-102.4-85.6-184.8-188.8-184.8H704c-4 0-11.2 0.8-20.8 0.8v1.6c-64.8 0-234.4 25.6-408.8 259.2z m388 39.2c-30.4-11.2-36-32-92-30.4-46.4 0-104 19.2-172 110.4-68.8 104.8-48 180.8-19.2 214.4l24.8 32.8c10.4 12 39.2 52.8 40 80 1.6 52-59.2 119.2-113.6 120.8-79.2 0-102.4-31.2-127.2-83.2-28-56-34.4-222.4 131.2-444 162.4-217.6 326.4-237.6 354.4-236.8l36 0.8c51.2 0 110.4 56.8 112 108 0.8 24.8-1.6 62.4-13.6 83.2-32.8 40-56.8 56.8-84.8 57.6-0.8 1.6-45.6-2.4-76-13.6z"  horiz-adv-x="1024" />

    
    <glyph glyph-name="qq" unicode="&#41061;" d="M901.6 334.4c-12.8 39.2-34.4 76-62.4 106.4v8c0 26.4-7.2 52-20 74.4C819.2 693.6 681.6 831.2 512 832c-169.6-0.8-307.2-138.4-306.4-308-12.8-23.2-19.2-48.8-19.2-74.4v-7.2c-28.8-30.4-49.6-67.2-63.2-107.2-28-88.8-24.8-195.2 38.4-216 6.4-2.4 13.6-3.2 20.8-3.2 4.8 0 10.4 0.8 15.2 1.6-17.6-16.8-28-39.2-28.8-64 0-66.4 78.4-116.8 186.4-116.8 50.4-1.6 100 12 142.4 39.2h28.8c42.4-27.2 92-40.8 142.4-39.2 108 0 186.4 49.6 186.4 116.8 0 24.8-11.2 48-28.8 64.8 5.6-1.6 10.4-1.6 16-1.6 7.2 0 13.6 0.8 20.8 3.2 62.4 19.2 66.4 125.6 38.4 214.4zM832.8 176h-4.8c-11.2 2.4-21.6 8.8-28.8 18.4-4 4.8-9.6 8-16 8h-2.4c-7.2-0.8-13.6-4.8-16.8-11.2-7.2-14.4-16.8-28-26.4-40.8-7.2-9.6-5.6-22.4 4-29.6 1.6-0.8 3.2-2.4 4.8-3.2 29.6-12 47.2-30.4 47.2-48.8 0-35.2-59.2-64-131.2-64-40.8-1.6-80.8 9.6-113.6 32.8-4 3.2-8.8 5.6-14.4 5.6h-44c-4.8 0-9.6-1.6-13.6-5.6-33.6-24-74.4-36-116-33.6-71.2 0-131.2 28.8-131.2 64 0 18.4 16.8 36.8 47.2 48.8 10.4 4.8 16 16.8 11.2 28-0.8 1.6-1.6 3.2-3.2 4.8-9.6 12.8-18.4 26.4-26.4 40.8-3.2 6.4-9.6 10.4-16.8 11.2h-2.4c-6.4 0-12-2.4-16.8-8-6.4-9.6-16.8-16.8-28-19.2h-4.8c-21.6 7.2-29.6 75.2-7.2 148 12 35.2 31.2 66.4 57.6 92.8 4.8 4.8 6.4 11.2 5.6 18.4v12.8c0 19.2 5.6 37.6 16 53.6 2.4 4 3.2 8 3.2 12v4.8c-0.8 136 108.8 247.2 244.8 248.8 136-0.8 246.4-111.2 246.4-247.2v-4c0-4 0.8-8.8 3.2-12 10.4-16 16-34.4 16-53.6v-13.6c-0.8-6.4 0.8-13.6 5.6-18.4 25.6-25.6 45.6-56.8 56.8-92 25.6-74.4 16.8-141.6-4.8-148.8z"  horiz-adv-x="1024" />

    
    <glyph glyph-name="questionnaire_score" unicode="&#41064;" d="M872.0384 875.2128L658.432 635.1872000000001 512 875.2128 389.632 635.1872000000001l-237.568 240.0256v-640h327.9872v-343.2448h64V235.21280000000002h327.9872v640z m-64-576H215.9616V719.9744000000001l128-129.6384 62.3616-63.1808 40.0384 79.1552 70.4512 138.4448 87.2448-142.4384 44.8512-73.6256 57.5488 64.8192 101.5808 113.5616v-407.8592zM321.57696-107.71251199999995L151.857152 62.009344000000056l45.253632 45.254656 169.72288-169.721856zM657.24416-62.45171200000004l169.720832 169.721856 45.254656-45.254656-169.721856-169.721856z"  horiz-adv-x="1024" />

    
    <glyph glyph-name="questionnaire_requirement" unicode="&#41065;" d="M542.72 853.33333333L100.69333333 410.45333333 42.66666667-85.33333332999996l495.78666666 58.02666666L981.33333333 414.72 542.72 853.33333333z m338.77333333-438.61333333l-62.29333333-62.29333333-338.77333333 337.92 62.29333333 62.29333333 338.77333333-337.92zM162.13333333 331.94666667l70.82666667-21.33333334L273.06666667 145.06666667000002l164.69333333-39.25333334 21.33333333-71.68-336.21333333-39.25333333L162.13333333 331.94666667zM526.50666667 59.73333333000005l-20.48 66.56-11.94666667 39.25333334-39.25333333 9.38666666L332.8 203.94666667l-29.86666667 122.88-10.24 40.10666666-39.25333333 11.94666667-65.70666667 19.62666667L430.08 640 768 302.08000000000004 526.50666667 59.73333333000005z"  horiz-adv-x="1024" />

    
    <glyph glyph-name="questionnaire_1" unicode="&#41072;" d="M810.4 810.4H213.6c-47.2 0-85.6-38.4-85.6-85.6v-682.4c0-47.2 38.4-85.6 85.6-85.6h597.6c47.2 0 85.6 38.4 85.6 85.6V725.6c-0.8 46.4-39.2 84.8-86.4 84.8zM236.8 687.2h549.6v-80.8H236.8V687.2zM512 388H236.8V468.8H512v-80.8z m77.6-307.2L457.6 204.79999999999995l51.2 51.2 80.8-72.8L728 344l58.4-51.2-196.8-212z"  horiz-adv-x="1024" />

    
    <glyph glyph-name="teacher" unicode="&#41074;" d="M684 706.4h224c32.8 0 32.8 51.2 0 51.2h-224c-32.8 0-32.8-51.2 0-51.2zM906.4 667.2h-84.8c-32.8 0-32.8-51.2 0-51.2h84.8c32.8 0 32.8 51.2 0 51.2zM882.4 562.4c-56-144.8-112.8-290.4-168.8-436-26.4 100-100.8 182.4-197.6 218.4 61.6 38.4 102.4 107.2 104 182.4-2.4 117.6-95.2 211.2-212.8 212.8-118.4 3.2-211.2-97.6-213.6-212-1.6-77.6 41.6-144.8 104-181.6-132.8-49.6-222.4-189.6-204.8-336.8h628.8c0 2.4 0 4.8 0.8 7.2 3.2 2.4 5.6 6.4 7.2 10.4 67.2 173.6 134.4 348 201.6 521.6 12 30.4-36.8 44-48.8 13.6z"  horiz-adv-x="1024" />

    
    <glyph glyph-name="Offline_Exam" unicode="&#41075;" d="M597.6064 811.2128H256c-47.2064 0-84.7872-38.4-84.7872-85.6064l-0.8192-682.7008c0-47.2064 37.5808-85.6064 84.7872-85.6064H768c47.2064 0 85.6064 38.4 85.6064 85.6064V555.1104l-256 256.1024z m48.2304-469.7088l-194.6624-198.656c-0.8192-0.8192-2.3552-1.6384-3.1744-1.6384l-63.1808-14.4384h-1.6384c-1.6384 0-3.1744 0.8192-4.8128 1.6384-1.6384 1.6384-2.3552 3.9936-1.6384 6.4512l13.6192 71.2704c0 1.6384 0.8192 2.3552 1.6384 3.1744L582.656 402.3296c1.6384 1.6384 3.1744 2.3552 4.8128 2.3552s3.1744-0.8192 4.8128-1.6384l52.8384-52.0192c3.072-2.2528 3.072-7.0656 0.7168-9.5232z m-95.4368 171.1104v234.496l235.2128-234.496H550.4z"  horiz-adv-x="1024" />

    
    <glyph glyph-name="Online_Exam" unicode="&#41076;" d="M882.5 807H141.5c-36.75 0-66-29.25-66-66v-546c0-36.75 29.25-66 66-66h304.5v-120H344c-13.5 0-24-10.5-24-24s10.5-24 24-24h336c13.5 0 24 10.5 24 24s-10.5 24-24 24H578V129h304.5c36.75 0 66 29.25 66 66V741c0 36.75-29.25 66-66 66zM449 367.5H191V443.25h258v-75.75z m382.5 108.75L649.25 290.25c-0.75-0.75-2.25-1.5-3-1.5L587 274.5h-1.5c-1.5 0-3 0.75-4.5 1.5-1.5 1.5-2.25 3.75-1.5 6l12.75 66.75c0 1.5 0.75 2.25 1.5 3l178.5 180.75c1.5 1.5 3 2.25 4.5 2.25 1.5 0 3-0.75 4.5-1.5l49.5-48.75c3-1.5 3-6 0.75-8.25z m1.5 148.5H191V700.5h642v-75.75z"  horiz-adv-x="1024" />

    
    <glyph glyph-name="qr-code" unicode="&#41077;" d="M147.968 777.1136h311.1936c31.9488-3.1744 23.9616-57.6512 23.9616-93.5936v-169.5744c0-36.7616 7.168-82.432-17.6128-92.7744-15.9744-7.168-59.1872-2.3552-79.9744-2.3552H219.9552c-38.4 0-90.4192-8.8064-96.0512 23.9616V753.152c4.096 11.9808 11.264 19.968 24.064 23.9616z m42.3936-70.3488v-221.5936h224.0512V709.12h-223.232c-0.8192 0.8192-0.8192-0.8192-0.8192-2.3552z m375.1936 70.3488h311.1936c12.8-4.8128 21.6064-12.8 23.9616-27.9552v-302.3872c-3.1744-12.8-9.6256-23.2448-21.6064-26.4192-19.968-5.632-53.5552-0.8192-78.4384-0.8192H640c-23.9616 0-60.0064-4.8128-79.1552 0.8192-27.9552 8.8064-19.968 61.6448-19.968 98.4064V677.1712c0.7168 43.1104-8.9088 93.5936 24.6784 99.9424z m42.496-70.3488v-221.5936h224.768V709.12H608.768c-0.7168 0.8192-0.7168-0.8192-0.7168-2.3552z m-315.2896-64.8192c31.232 5.632 56.0128-15.1552 56.0128-43.2128 0.8192-37.5808-37.5808-57.6512-67.9936-42.3936-33.5872 18.432-31.1296 77.6192 11.9808 85.6064z m417.6896 0c73.6256 13.6192 71.9872-101.5808 0-89.6-46.4896 7.9872-47.2064 81.6128 0 89.6zM456.8064 1.1263999999999896H148.7872c-12.8 3.9936-21.6064 11.9808-24.7808 24.7808V335.5648c3.1744 8.8064 10.4448 19.968 20.7872 22.4256 20.7872 5.632 53.5552 0.8192 78.4384 0.8192h159.9488c23.9616 0 57.6512 4.8128 79.1552-0.8192 28.7744-8.8064 20.7872-60.8256 20.7872-97.5872v-164.0448c-0.7168-39.2192 8.0896-91.2384-26.3168-95.232zM190.3616 289.0752v-221.5936h224.0512V291.53279999999995h-223.232c-0.8192 0.8192-0.8192-0.8192-0.8192-2.4576z m709.632 42.496v-86.4256c-2.3552-28.7744 0-62.3616-0.8192-93.5936H676.7616v50.3808c-20.7872 2.3552-46.3872 0-68.8128 0.8192-2.3552-64.8192 0-135.168-0.8192-201.6256h-40.7552c-35.2256 7.168-24.7808 58.368-24.7808 100.0448V260.3008c0 23.9616-4.8128 60.0064 0.8192 79.1552 7.168 23.2448 37.5808 19.2512 68.8128 19.2512h151.2448v-136.8064h69.632c0.8192 45.568-1.6384 93.5936 0.8192 136.8064 34.304 2.4576 65.4336 2.4576 67.072-27.136z m-601.6-106.496c33.5872 3.9936 60.8256-27.9552 48.0256-62.3616-17.6128-48.0256-104.0384-30.4128-87.9616 31.232 4.7104 16.7936 17.5104 28.7744 39.936 31.1296z m453.632-223.9488H676.864c0.8192 26.4192-1.6384 55.1936 0.8192 79.9744h74.4448v-79.9744h-0.1024z m147.968 79.9744v-52.8384c-3.1744-14.4384-11.1616-23.2448-24.7808-27.9552h-53.5552c0.8192 26.4192-1.6384 55.1936 0.8192 79.9744 0.7168 0.8192 77.5168 0.8192 77.5168 0.8192z"  horiz-adv-x="1024" />

    
    <glyph glyph-name="friend_add_fill" unicode="&#41080;" d="M842.75 132h-60V189c0 18-12 30-30 30s-30-12-30-30v-57h-60c-18 0-30-12-30-30s12-30 30-30h60v-63c0-18 12-30 30-30s30 12 30 30v63h60c18 0 30 12 30 30s-12 30-30 30zM692.75 9v33h-30c-33 0-60 27-60 60s27 60 60 60h30V189c0 24 12 42 30 51-21 21-60 36-81 45 81 48 138 135 138 234 0 150-120 270-270 270s-270-120-270-270c0-102 57-189 138-234-114-45-201-144-225-270-3-9 0-18 6-24 6-6 15-12 24-12h519c-3 9-9 21-9 30z"  horiz-adv-x="1024" />

    
    <glyph glyph-name="review" unicode="&#41081;" d="M868.8 13.600000000000023c0-20.8-13.6-37.6-30.4-37.6H184.8c-16.8 0-30.4 16.8-30.4 37.6v12.8h713.6v-12.8zM155.2 224.79999999999995c0 20.8 13.6 38.4 30.4 38.4h168c67.2 44 60.8 100.8 60.8 100.8 2.4 30.4-56.8 105.6-56.8 105.6-28 35.2-44 79.2-44 124 0 106.4 84 193.6 190.4 199.2h15.2c105.6-5.6 190.4-92 190.4-199.2 0-47.2-16-90.4-44-124 0 0-59.2-75.2-56.8-105.6 0 0-6.4-56.8 60.8-100.8h168c16.8 0 30.4-16.8 30.4-38.4v-138.4l-713.6-1.6 0.8 140z"  horiz-adv-x="1024" />

    
    <glyph glyph-name="pie" unicode="&#41088;" d="M512 792c-225.6 0-408-182.4-408-408s182.4-408 408-408 408 182.4 408 408H512V792z m338.4-472C820 160.79999999999995 680 40 512 40c-189.6 0-344 154.4-344 344 0 168 120.8 308 280 338.4V320h402.4zM920 472c0 4.8-0.8 8.8-3.2 12.8-35.2 150.4-153.6 268.8-304 304-4 1.6-8 3.2-12.8 3.2-17.6 0-32-14.4-32-32s14.4-32 32-33.6C725.6 696 824 597.6 854.4 472c2.4-16 16-32 33.6-32s32 14.4 32 32z"  horiz-adv-x="1024" />

    
    <glyph glyph-name="learning_portfolio" unicode="&#41089;" d="M212 595.5c-12.75 0-22.5-13.5-22.5-30s10.5-30 22.5-30h251.25c12.75 0 22.5 13.5 22.5 30s-10.5 30-22.5 30H212zM936.5 48c-3.75 2.25-91.5 54.75-162 60.75v13.5c80.25 34.5 132 117 132 215.25 0 128.25-98.25 231.75-219.75 231.75C566 569.25 467 465 467 337.5c0-97.5 51-180.75 132-215.25v-13.5c-70.5-6-158.25-58.5-162-60.75-10.5-6-13.5-27-7.5-36.75 6-10.5 19.5-21 29.25-15 0.75 0.75 100.5 50.25 159.75 54.75H639.5c12 0 21.75 9.75 21.75 21.75V144c0 9-6 18-15 20.25-72 23.25-118.5 88.5-118.5 173.25 0 104.25 63 171.75 159.75 172.5 96.75 0 159.75-68.25 159.75-172.5 0-84.75-47.25-150-118.5-173.25-9-3-15-11.25-15-20.25v-71.25c0-12 9.75-21.75 21.75-21.75h21c59.25-4.5 159-54.75 159.75-54.75 10.5-6 23.25 4.5 29.25 15 4.5 9.75 1.5 30.75-9 36.75zM394.25 385.5h-187.5c-9.75 0-17.25-13.5-17.25-30s7.5-30 17.25-30h187.5c9.75 0 17.25 13.5 17.25 30s-7.5 30-17.25 30zM302 54H167c-16.5 0-30 13.5-30 30V684c0 16.5 13.5 30 30 30h540c16.5 0 30-13.5 30-30v-60c0-16.5 13.5-30 30-30s30 13.5 30 30v60c0 49.5-40.5 90-90 90H167c-49.5 0-90-40.5-90-90v-600c0-49.5 40.5-90 90-90h135c16.5 0 29.25 13.5 29.25 30 0.75 16.5-12.75 30-29.25 30z"  horiz-adv-x="1024" />

    
    </font>
</defs>
</svg>
